<?xml version="1.0" encoding="utf-8"?>
<!-- Generator: Adobe Illustrator 27.0.0, SVG Export Plug-In . SVG Version: 6.00 Build 0)  -->
<svg version="1.1" id="Layer_1" xmlns="http://www.w3.org/2000/svg" xmlns:xlink="http://www.w3.org/1999/xlink" x="0px" y="0px"
	 viewBox="0 0 283 312" style="enable-background:new 0 0 283 312;" xml:space="preserve">
<style type="text/css">
	.st0{fill:#006837;}
</style>
<g>
	<path class="st0" d="M273.5,223.5c0,46.3-34.7,81.4-80.6,81.4c-45.8,0-80.7-35.2-80.8-81.4c0-46.1,34.9-82,80.7-81.3
		C245.6,143.2,273.4,182.4,273.5,223.5z M178.5,235.5c-5.9-6.8-11.2-13.2-16.7-19.4c-3.3-3.7-7.3-4-10.6-1.2
		c-3.2,2.7-3.7,7.1-0.6,10.7c7,8.4,14.2,16.7,21.4,25c3,3.4,6.8,3.9,10.2,1c17.5-14.8,34.9-29.8,52.4-44.7c0.5-0.4,1.2-1,1.2-1.5
		c-0.1-2.9,0.6-6.3-0.7-8.7c-1.7-3.2-5.4-3.6-8.8-1.8c-1.3,0.7-2.4,1.7-3.6,2.7C208.1,210.2,193.5,222.7,178.5,235.5z"/>
	<path d="M140.5,304.9c-33.3,0-65.7,0.4-98.2-0.1C23.5,304.5,8.1,288.1,8,269.2c-0.2-30.3-0.2-60.6,0-90.9
		c0.1-19.3,15.5-35.6,35.1-36c32-0.6,64-0.2,95.9-0.1c0.3,0,0.5,0.3,0.9,0.4c-5.2,4.6-10.3,9.2-15.7,13.5c-1.1,0.9-3.1,0.8-4.7,0.8
		c-24.3,0-48.6,0-73,0c-14.7,0-23.8,9-23.9,23.5c-0.1,28.6-0.1,57.3,0,85.9c0,14.7,9,23.6,23.7,23.6c24.3,0,48.6-0.1,73,0.1
		c2.3,0,5,1.3,6.9,2.7C131,296.5,135.4,300.6,140.5,304.9z"/>
	<path d="M155.2,68.1c0.1,32.6-26,59-58.4,59.3C64.7,127.5,38,101,37.9,68.6C37.8,35.8,64.2,9,96.6,9C128.8,9,155.2,35.6,155.2,68.1
		z M52.7,68.1c-0.1,24.4,19.7,44.5,43.9,44.6c24,0,44.1-20.4,44-44.6c-0.1-24.2-19.8-44.1-43.7-44.2C72.5,23.8,52.8,43.6,52.7,68.1z
		"/>
</g>
</svg>
