<?xml version="1.0" encoding="utf-8"?>
<!-- Generator: Adobe Illustrator 27.0.0, SVG Export Plug-In . SVG Version: 6.00 Build 0)  -->
<svg version="1.1" id="Layer_1" xmlns="http://www.w3.org/2000/svg" xmlns:xlink="http://www.w3.org/1999/xlink" x="0px" y="0px"
	 viewBox="0 0 32 32" style="enable-background:new 0 0 32 32;" xml:space="preserve">
<style type="text/css">
	.st0{fill:#FFFFFF;}
</style>
<g>
	<path d="M12.7,1c0.2,0.1,0.5,0.1,0.7,0.2c0.8,0.4,1.3,1,1.6,1.9c0,0.1,0.1,0.2,0.1,0.3c0.3,0,0.5,0,0.8,0c0.5,0,1,0.2,1.3,0.6
		c0.1,0.1,0.2,0.1,0.3,0.1c0.8,0,1.7,0,2.5,0c1.2,0,1.9,0.7,1.9,1.9c0,1.3,0,2.6,0,3.9c0,0.1,0,0.2,0,0.4c2.3-0.5,4.3,0,5.9,1.6
		c1.2,1.2,1.7,2.7,1.5,4.4c-0.3,3.5-3.7,6.1-7.4,5.1c0,0.1,0,0.2,0,0.3c0,2.3,0,4.7,0,7c0,1.3-0.9,2.1-2.1,2c-5.1,0-10.2,0-15.3,0
		c-1,0-1.7-0.6-1.9-1.4c0-0.2,0-0.3,0-0.5c0-7.6,0-15.3,0-22.9c0-1.2,0.8-1.9,1.9-1.9c0.8,0,1.7,0,2.5,0c0.2,0,0.3,0,0.4-0.2
		c0.3-0.4,0.7-0.6,1.2-0.6c0.3,0,0.5,0,0.8,0c0-0.1,0.1-0.1,0.1-0.2c0.3-1.2,1-2,2.3-2.3c0,0,0,0,0.1,0C12.2,1,12.4,1,12.7,1z
		 M5.3,28.2c4.7,0,9.3,0,14,0c0-0.1,0-0.2,0-0.3c0-2.6,0-5.2,0-7.8c0-0.2-0.1-0.3-0.2-0.5c-1.8-2.2-1.8-5.2,0-7.4
		c0.1-0.1,0.2-0.3,0.2-0.5c0-1.5,0-2.9,0-4.4c0-0.1,0-0.2,0-0.3c-0.6,0-1.2,0-1.8,0c-0.1,0-0.1,0.1-0.2,0.1C17,7.8,16.4,8,15.8,8
		c-2.3,0-4.6,0-6.9,0C8.1,8,7.5,7.8,7.2,7C6.6,7,5.9,7,5.3,7C5.3,14.1,5.3,21.2,5.3,28.2z M7.1,5.2c-0.9,0-1.7,0-2.6,0
		c-0.6,0-0.9,0.4-0.9,0.9c0,7.7,0,15.3,0,23c0,0.6,0.4,0.9,0.9,0.9c5.2,0,10.4,0,15.6,0c0.5,0,0.9-0.3,0.9-0.9c0-2.6,0-5.2,0-7.8
		c0-0.1,0-0.2-0.1-0.2c-0.2-0.1-0.4-0.2-0.7-0.4c0,0.2,0,0.3,0,0.4c0,2.4,0,4.9,0,7.3c0,0.6-0.1,0.7-0.7,0.7c-4.8,0-9.6,0-14.5,0
		c-0.6,0-0.7-0.1-0.7-0.7c0-7.2,0-14.4,0-21.6c0-0.6,0.1-0.7,0.7-0.7c0.7,0,1.3,0,2,0C7.1,5.8,7.1,5.5,7.1,5.2z M12.3,7.1
		c1.2,0,2.4,0,3.6,0c0.4,0,0.7-0.2,0.7-0.6c0-0.5,0-0.9,0-1.4c0-0.4-0.3-0.6-0.7-0.6c-0.4,0-0.8,0-1.2,0c-0.3,0-0.5-0.2-0.5-0.5
		c0-0.1,0-0.3-0.1-0.4c-0.2-0.8-0.6-1.3-1.4-1.5c-0.8-0.2-1.4,0.1-1.9,0.7c-0.3,0.3-0.4,0.7-0.4,1.1c0,0.5-0.2,0.6-0.7,0.6
		c-0.3,0-0.7,0-1,0C8.3,4.4,8,4.7,8,5.2c0,0.4,0,0.8,0,1.2c0,0.5,0.2,0.7,0.8,0.7C9.9,7.1,11.1,7.1,12.3,7.1z M28.4,16
		c0-2.7-2.2-4.9-4.9-4.9c-2.7,0-4.8,2.2-4.9,4.8c0,2.7,2.2,4.9,4.8,4.9C26.2,20.9,28.4,18.7,28.4,16z M20.2,11.2
		c0.2-0.1,0.4-0.2,0.6-0.3c0.1-0.1,0.2-0.2,0.2-0.3c0-1.5,0-3,0-4.5c0-0.6-0.4-0.9-1-0.9c-0.6,0-1.3,0-1.9,0c-0.2,0-0.4,0-0.6,0
		c0,0.3,0,0.6,0,0.9c0.7,0,1.4,0,2.1,0c0.5,0,0.7,0.1,0.7,0.7c0,1.4,0,2.7,0,4.1C20.2,11,20.2,11.1,20.2,11.2z"/>
	<path class="st0" d="M5.3,28.2c0-7.1,0-14.1,0-21.2c0.6,0,1.3,0,1.9,0c0.3,0.7,0.9,1,1.7,1c2.3,0,4.6,0,6.9,0
		c0.7,0,1.2-0.2,1.6-0.9c0-0.1,0.1-0.1,0.2-0.1c0.6,0,1.2,0,1.8,0c0,0.1,0,0.2,0,0.3c0,1.5,0,2.9,0,4.4c0,0.2-0.1,0.4-0.2,0.5
		c-1.8,2.2-1.8,5.2,0,7.4c0.1,0.1,0.2,0.3,0.2,0.5c0,2.6,0,5.2,0,7.8c0,0.1,0,0.2,0,0.3C14.6,28.2,10,28.2,5.3,28.2z M14.9,25
		c0.8,0,1.6,0,2.5,0c0.4,0,0.6-0.2,0.6-0.5c0-0.3-0.2-0.5-0.5-0.5c-1.6,0-3.3,0-4.9,0c-0.3,0-0.5,0.2-0.5,0.5c0,0.3,0.2,0.5,0.6,0.5
		C13.3,25,14.1,25,14.9,25z M15,11.3c-0.8,0-1.6,0-2.5,0c-0.4,0-0.6,0.2-0.6,0.5c0,0.3,0.2,0.5,0.6,0.5c1.6,0,3.2,0,4.9,0
		c0.4,0,0.6-0.2,0.6-0.5c0-0.3-0.2-0.5-0.6-0.5C16.6,11.3,15.8,11.3,15,11.3z M14.9,19.8c-0.1,0-0.3,0-0.4,0c-0.7,0-1.4,0-2.2,0
		c-0.3,0-0.4,0.2-0.5,0.4c0,0.3,0.1,0.4,0.4,0.5c0.1,0,0.2,0,0.3,0c1,0,2.1,0,3.1,0c0.5,0,1.1,0,1.6,0c0.2,0,0.4-0.1,0.5-0.2
		c0.1-0.1,0.1-0.3,0-0.4c-0.1-0.1-0.3-0.2-0.4-0.2C16.6,19.8,15.8,19.8,14.9,19.8z M8.3,16.2c-0.3-0.3-0.6-0.6-0.9-0.9
		c-0.2-0.2-0.5-0.2-0.7,0c-0.2,0.2-0.2,0.5,0,0.7c0.4,0.4,0.8,0.8,1.2,1.2c0.2,0.2,0.4,0.2,0.6,0c0.6-0.6,1.2-1.2,1.8-1.8
		c0.2-0.2,0.2-0.4,0-0.6c-0.2-0.2-0.4-0.2-0.6,0c-0.1,0.1-0.2,0.1-0.2,0.2C9.1,15.4,8.7,15.8,8.3,16.2z M8.3,24.7
		c-0.3-0.3-0.6-0.6-0.9-0.9c-0.2-0.2-0.5-0.2-0.7,0c-0.2,0.2-0.2,0.5,0,0.7c0.4,0.4,0.8,0.8,1.2,1.2c0.2,0.2,0.4,0.2,0.6,0
		c0.6-0.6,1.2-1.2,1.8-1.8c0.2-0.2,0.2-0.5,0-0.6c-0.2-0.2-0.4-0.2-0.6,0c-0.1,0.1-0.1,0.1-0.2,0.2C9.2,23.9,8.8,24.3,8.3,24.7z
		 M8.3,20.5c-0.3-0.3-0.6-0.6-0.8-0.9c-0.2-0.2-0.5-0.2-0.7-0.1c-0.2,0.2-0.2,0.5,0,0.7c0.4,0.4,0.7,0.7,1.1,1.1
		c0.3,0.3,0.5,0.3,0.8,0c0.5-0.5,1.1-1,1.6-1.6c0.3-0.3,0.3-0.5,0.1-0.7c-0.2-0.2-0.5-0.2-0.7,0.1C9.2,19.6,8.8,20,8.3,20.5z
		 M8.3,12c-0.3-0.3-0.6-0.6-0.8-0.9c-0.2-0.2-0.5-0.2-0.7-0.1c-0.2,0.2-0.2,0.5,0,0.7c0.4,0.4,0.7,0.7,1.1,1.1
		c0.3,0.3,0.5,0.3,0.8,0c0.5-0.5,1.1-1,1.6-1.6c0.3-0.3,0.3-0.5,0.1-0.7c-0.2-0.2-0.5-0.2-0.7,0.1C9.2,11.1,8.8,11.5,8.3,12z
		 M14.3,16.5c0.6,0,1.3,0,1.9,0c0.3,0,0.5-0.2,0.5-0.5c0-0.3-0.2-0.5-0.5-0.5c-1.3,0-2.5,0-3.8,0c-0.3,0-0.5,0.2-0.5,0.5
		c0,0.3,0.2,0.5,0.5,0.5C13.1,16.5,13.7,16.5,14.3,16.5z"/>
	<path class="st0" d="M7.1,5.2c0,0.3,0,0.6,0,0.9c-0.7,0-1.3,0-2,0c-0.6,0-0.7,0.1-0.7,0.7c0,7.2,0,14.4,0,21.6
		c0,0.6,0.1,0.7,0.7,0.7c4.8,0,9.6,0,14.5,0c0.6,0,0.7-0.1,0.7-0.7c0-2.4,0-4.9,0-7.3c0-0.1,0-0.2,0-0.4c0.3,0.1,0.5,0.3,0.7,0.4
		c0.1,0,0.1,0.1,0.1,0.2c0,2.6,0,5.2,0,7.8c0,0.5-0.4,0.9-0.9,0.9c-5.2,0-10.4,0-15.6,0c-0.6,0-0.9-0.4-0.9-0.9c0-7.7,0-15.3,0-23
		c0-0.6,0.4-0.9,0.9-0.9C5.3,5.2,6.2,5.2,7.1,5.2z"/>
	<path class="st0" d="M12.3,7.1c-1.2,0-2.3,0-3.5,0C8.3,7.1,8,6.9,8,6.3c0-0.4,0-0.8,0-1.2c0-0.5,0.2-0.7,0.7-0.7c0.3,0,0.7,0,1,0
		c0.5,0,0.6-0.1,0.7-0.6c0-0.4,0.2-0.8,0.4-1.1c0.5-0.6,1.1-0.9,1.9-0.7c0.8,0.2,1.2,0.8,1.4,1.5c0,0.1,0,0.3,0.1,0.4
		c0,0.3,0.2,0.5,0.5,0.5c0.4,0,0.8,0,1.2,0c0.4,0,0.7,0.2,0.7,0.6c0,0.5,0,0.9,0,1.4c0,0.4-0.3,0.6-0.7,0.6
		C14.7,7.1,13.5,7.1,12.3,7.1z"/>
	<path class="st0" d="M28.4,16c0,2.7-2.2,4.9-4.9,4.9c-2.7,0-4.9-2.2-4.8-4.9c0-2.7,2.2-4.8,4.9-4.8C26.2,11.1,28.4,13.3,28.4,16z
		 M23.6,11.8c-2.3,0-4.2,1.9-4.2,4.2c0,2.3,1.9,4.2,4.2,4.2c2.3,0,4.2-1.9,4.2-4.2C27.8,13.7,25.9,11.8,23.6,11.8z"/>
	<path class="st0" d="M20.2,11.2c0-0.2,0-0.3,0-0.4c0-1.4,0-2.7,0-4.1c0-0.5-0.1-0.7-0.7-0.7c-0.7,0-1.4,0-2.1,0c0-0.3,0-0.6,0-0.9
		c0.2,0,0.4,0,0.6,0c0.6,0,1.3,0,1.9,0c0.6,0,0.9,0.3,1,0.9c0,1.5,0,3,0,4.5c0,0.1-0.1,0.2-0.2,0.3C20.7,11,20.5,11.1,20.2,11.2z"/>
	<path d="M14.9,25c-0.8,0-1.6,0-2.4,0c-0.4,0-0.6-0.2-0.6-0.5c0-0.3,0.2-0.5,0.5-0.5c1.6,0,3.3,0,4.9,0c0.3,0,0.5,0.2,0.5,0.5
		c0,0.3-0.2,0.5-0.6,0.5C16.6,25,15.7,25,14.9,25z"/>
	<path d="M15,11.3c0.8,0,1.6,0,2.4,0c0.4,0,0.6,0.2,0.6,0.5c0,0.3-0.2,0.5-0.6,0.5c-1.6,0-3.2,0-4.9,0c-0.4,0-0.6-0.2-0.6-0.5
		c0-0.3,0.2-0.5,0.6-0.5C13.3,11.3,14.1,11.3,15,11.3z"/>
	<path d="M14.9,19.8c0.8,0,1.7,0,2.5,0c0.2,0,0.4,0.1,0.4,0.2c0.1,0.1,0.1,0.4,0,0.4c-0.1,0.1-0.3,0.2-0.5,0.2c-0.5,0-1.1,0-1.6,0
		c-1,0-2.1,0-3.1,0c-0.1,0-0.2,0-0.3,0c-0.3,0-0.4-0.2-0.4-0.5c0-0.2,0.2-0.4,0.5-0.4c0.7,0,1.4,0,2.2,0
		C14.7,19.8,14.8,19.8,14.9,19.8z"/>
	<path d="M8.3,16.2c0.4-0.4,0.8-0.8,1.2-1.2c0.1-0.1,0.1-0.2,0.2-0.2c0.2-0.2,0.5-0.1,0.6,0c0.2,0.2,0.2,0.4,0,0.6
		c-0.6,0.6-1.2,1.2-1.8,1.8c-0.2,0.2-0.4,0.2-0.6,0c-0.4-0.4-0.8-0.8-1.2-1.2c-0.2-0.2-0.2-0.5,0-0.7c0.2-0.2,0.5-0.2,0.7,0
		C7.7,15.6,8,15.9,8.3,16.2z"/>
	<path d="M8.3,24.7c0.4-0.4,0.8-0.8,1.2-1.2c0.1-0.1,0.1-0.1,0.2-0.2c0.2-0.2,0.5-0.2,0.6,0c0.2,0.2,0.2,0.4,0,0.6
		c-0.6,0.6-1.2,1.2-1.8,1.8c-0.2,0.2-0.4,0.2-0.6,0c-0.4-0.4-0.8-0.8-1.2-1.2c-0.2-0.2-0.2-0.5,0-0.7c0.2-0.2,0.5-0.2,0.7,0
		C7.7,24.1,8,24.4,8.3,24.7z"/>
	<path d="M8.3,20.5c0.5-0.5,0.9-0.9,1.3-1.4c0.3-0.3,0.5-0.3,0.7-0.1c0.2,0.2,0.2,0.5-0.1,0.7c-0.5,0.5-1,1.1-1.6,1.6
		c-0.3,0.3-0.5,0.3-0.8,0c-0.4-0.4-0.7-0.7-1.1-1.1c-0.2-0.2-0.3-0.5,0-0.7c0.2-0.2,0.5-0.2,0.7,0.1C7.8,19.9,8,20.2,8.3,20.5z"/>
	<path d="M8.3,12c0.5-0.5,0.9-0.9,1.3-1.3c0.3-0.3,0.5-0.3,0.7-0.1c0.2,0.2,0.2,0.5-0.1,0.7c-0.5,0.5-1,1.1-1.6,1.6
		c-0.3,0.3-0.5,0.3-0.8,0c-0.4-0.4-0.7-0.7-1.1-1.1c-0.2-0.2-0.3-0.5,0-0.7c0.2-0.2,0.5-0.2,0.7,0.1C7.8,11.4,8,11.7,8.3,12z"/>
	<path d="M14.3,16.5c-0.6,0-1.2,0-1.8,0c-0.3,0-0.5-0.2-0.5-0.5c0-0.3,0.2-0.5,0.5-0.5c1.3,0,2.5,0,3.8,0c0.3,0,0.5,0.2,0.5,0.5
		c0,0.3-0.2,0.5-0.5,0.5C15.6,16.5,15,16.5,14.3,16.5z"/>
	<path d="M23.6,11.8c2.3,0,4.2,1.9,4.2,4.2c0,2.3-1.9,4.2-4.2,4.2c-2.3,0-4.2-1.9-4.2-4.2C19.4,13.7,21.3,11.8,23.6,11.8z
		 M23.6,12.8c-1.8,0-3.2,1.4-3.3,3.2c0,1.8,1.4,3.3,3.2,3.3c1.8,0,3.2-1.5,3.2-3.2C26.8,14.2,25.4,12.8,23.6,12.8z"/>
	<path class="st0" d="M23.6,12.8c1.8,0,3.2,1.5,3.2,3.2c0,1.8-1.5,3.2-3.2,3.2c-1.8,0-3.3-1.5-3.2-3.3
		C20.3,14.2,21.8,12.7,23.6,12.8z M24,15.5c0-0.5,0-1.1,0-1.6c0-0.3-0.2-0.6-0.5-0.5c-0.3,0-0.5,0.2-0.5,0.6c0,0.6,0,1.3,0,1.9
		c0,0.4,0.2,0.6,0.6,0.6c0.4,0,0.9,0,1.3,0c0.3,0,0.5-0.2,0.5-0.5c0-0.3-0.2-0.5-0.5-0.5C24.7,15.5,24.4,15.5,24,15.5z"/>
	<path d="M24,15.5c0.4,0,0.7,0,1,0c0.3,0,0.5,0.2,0.5,0.5c0,0.3-0.2,0.5-0.5,0.5c-0.4,0-0.9,0-1.3,0c-0.4,0-0.6-0.2-0.6-0.6
		c0-0.6,0-1.3,0-1.9c0-0.3,0.2-0.6,0.5-0.6c0.3,0,0.5,0.2,0.5,0.5C24,14.5,24,15,24,15.5z"/>
</g>
</svg>
