<?xml version="1.0" encoding="utf-8"?>
<!-- Generator: Adobe Illustrator 27.0.0, SVG Export Plug-In . SVG Version: 6.00 Build 0)  -->
<svg version="1.1" id="Layer_1" xmlns="http://www.w3.org/2000/svg" xmlns:xlink="http://www.w3.org/1999/xlink" x="0px" y="0px"
	 viewBox="0 0 32 32" style="enable-background:new 0 0 32 32;" xml:space="preserve">
<style type="text/css">
	.st0{fill:#BCBEC0;}
	.st1{fill:#FFFFFF;}
	.st2{fill:#2E3192;}
	.st3{fill:#FFFFFF;stroke:#000000;stroke-width:0.8147;stroke-miterlimit:10;}
	.st4{fill:none;stroke:#ED1C24;stroke-width:0.593;stroke-miterlimit:10;}
</style>
<path class="st0" d="M19.1,24.9c0,0.7,0,1.3,0,2c0,0.4-0.3,0.8-0.5,1c-0.6,0.6-1.3,0.9-2,1.2c-2,0.7-4,0.8-6,0.7
	c-1.4-0.1-2.7-0.4-3.9-1.1c-0.5-0.2-0.9-0.6-1.3-1c-0.3-0.2-0.4-0.6-0.4-1c0-0.6,0-1.3,0-2c0.7,0.6,1.4,1,2.2,1.3
	c2,0.7,4.1,0.9,6.2,0.7c1.3-0.1,2.6-0.3,3.9-0.9C17.9,25.6,18.5,25.2,19.1,24.9z M9.4,28c0-0.2-0.2-0.3-0.4-0.4
	c-0.8-0.3-1.7-0.6-2.5-0.9c-0.3-0.1-0.5,0-0.6,0.2c-0.1,0.2,0,0.5,0.2,0.6C7,28,8,28.3,8.9,28.5C9.2,28.6,9.4,28.3,9.4,28z
	 M18.2,27.2c0-0.3-0.2-0.5-0.4-0.5c-0.2,0-0.4,0.2-0.4,0.5c0,0.3,0.2,0.5,0.4,0.5C18,27.6,18.2,27.4,18.2,27.2z M16.4,27.9
	c0-0.3-0.2-0.5-0.4-0.5c-0.2,0-0.4,0.2-0.4,0.5c0,0.3,0.2,0.5,0.4,0.5C16.2,28.3,16.4,28.1,16.4,27.9z"/>
<path d="M30.5,3.6c0,8,0,15.9,0,23.9c0,0,0,0,0,0c-0.4,1.5-1.2,2.2-2.6,2.2c-3.4,0-6.8,0-10.2,0c-0.1,0-0.2,0-0.3,0
	c-1.2,0.5-2.4,0.8-3.6,0.9c-0.9,0.1-1.8,0-2.7,0c-0.3,0-0.4-0.2-0.4-0.5c0-0.3,0.2-0.4,0.4-0.5c0.1,0,0.2,0,0.3,0
	c1.6,0.1,3.2-0.1,4.8-0.5c0.9-0.3,1.8-0.6,2.5-1.3c0.2-0.2,0.5-0.6,0.5-0.9c0.1-0.8,0-1.5,0-2.2c-0.5,0.3-0.9,0.6-1.4,0.9
	c-1.5,0.7-3.1,1-4.7,1.1C11,26.9,9.1,26.7,7.2,26c-0.8-0.3-1.5-0.7-2.2-1.3c0,0.6,0,1.2,0,1.7c-0.1,0.7,0.2,1.2,0.7,1.7
	c0.8,0.6,1.6,1,2.5,1.2c0.2,0.1,0.5,0.1,0.7,0.2c0.3,0.1,0.4,0.3,0.4,0.6c0,0.3-0.3,0.4-0.5,0.4c-0.1,0-0.2,0-0.3-0.1
	c-1.4-0.6-2.9-0.6-4.5-0.6c-1.6,0-2.6-1.1-2.6-2.9c0-2.3,0-4.5,0-6.8c0-5.3,0-10.7,0-16c0-1.1,0.4-1.9,1.3-2.5
	c0.4-0.3,0.9-0.3,1.4-0.3c7.9,0,15.7,0,23.6,0C29.3,1.3,30,1.9,30.5,3.6C30.5,3.6,30.5,3.6,30.5,3.6z M18.9,28.8c0.2,0,0.2,0,0.3,0
	c2.9,0,5.8,0,8.7,0c1.1,0,1.7-0.7,1.7-1.9c0-6.1,0-12.3,0-18.4c0-0.1,0-0.2,0-0.3c-9.1,0-18.2,0-27.3,0c0,0.2,0,0.3,0,0.4
	c0,3.5,0,7,0,10.4c0,2.7,0,5.3,0,8c0,0.7,0.3,1.3,0.9,1.6c0.6,0.3,1.2,0.1,1.9,0.1c-0.8-0.7-1-1.5-1-2.6c0-3.6,0-7.2,0-10.8
	c0-1,0.4-1.8,1-2.4c0.6-0.5,1.3-0.9,2-1.1c3-1,6.1-1,9.1-0.2c1,0.3,2,0.7,2.8,1.5c0.6,0.5,0.8,1.2,0.8,2.1c0,3.8,0,7.5,0,11.3
	c0,0.1,0,0.3,0,0.4C19.9,27.8,19.5,28.3,18.9,28.8z M2.6,7.3c9,0,17.9,0,26.8,0c0-1.1,0-2.2,0-3.3c0-0.5-0.3-0.9-0.6-1.2
	c-0.3-0.3-0.7-0.3-1.1-0.3c-7.8,0-15.6,0-23.3,0c-0.1,0-0.2,0-0.3,0C3.3,2.6,2.6,3.2,2.6,4C2.6,5.1,2.6,6.2,2.6,7.3z M12,12.1
	c-1.5,0-3,0.2-4.5,0.7c-0.8,0.3-1.6,0.6-2.2,1.3c-0.5,0.6-0.5,1.2,0,1.8c0.4,0.4,0.8,0.7,1.3,1c1.1,0.6,2.3,0.9,3.5,1
	c2,0.2,4.1,0.1,6-0.5c0.9-0.3,1.8-0.6,2.5-1.4c0.6-0.7,0.6-1.3,0-2c-0.5-0.5-1-0.8-1.6-1.1C15.4,12.3,13.7,12.1,12,12.1z M19.1,16.9
	c-0.9,0.8-1.9,1.2-3,1.5c-2.2,0.6-4.5,0.7-6.7,0.3c-1.5-0.3-3-0.7-4.3-1.8c0,0,0,0-0.1,0c0,0.6,0,1.3,0,1.9c0,0.4,0.1,0.8,0.4,1
	c0.4,0.4,0.8,0.7,1.3,1c1.1,0.6,2.3,0.9,3.5,1c2.1,0.2,4.2,0.1,6.3-0.5c0.8-0.3,1.5-0.6,2.1-1.2c0.3-0.3,0.5-0.5,0.5-0.9
	C19.1,18.4,19.1,17.7,19.1,16.9z M19.1,20.9c-0.6,0.3-1.2,0.7-1.8,1c-1.2,0.6-2.6,0.8-3.9,0.9c-2.1,0.2-4.2,0-6.2-0.7
	c-0.8-0.3-1.5-0.7-2.2-1.3c0,0.7,0,1.3,0,2c0,0.4,0.1,0.8,0.4,1c0.4,0.4,0.8,0.7,1.3,1c1.2,0.7,2.6,0.9,3.9,1.1c2,0.2,4.1,0,6-0.7
	c0.7-0.3,1.4-0.6,2-1.2c0.3-0.3,0.5-0.6,0.5-1C19.1,22.3,19.1,21.6,19.1,20.9z"/>
<path class="st1" d="M2.6,7.3c0-1.1,0-2.2,0-3.3c0-0.8,0.7-1.4,1.4-1.5c0.1,0,0.2,0,0.3,0c7.8,0,15.6,0,23.3,0
	c0.4,0,0.8,0.1,1.1,0.3c0.4,0.3,0.6,0.7,0.6,1.2c0,1.1,0,2.2,0,3.3C20.5,7.3,11.5,7.3,2.6,7.3z M10.4,4.4c0,0.4,0,0.7,0,1
	c-2,0-4,0-6,0c0-0.3,0-0.6,0-1c0.6,0,1.1,0,1.7,0c0.3,0,0.5-0.2,0.5-0.5c0-0.3-0.2-0.5-0.5-0.5c-0.6,0-1.1,0-1.7,0
	c-0.5,0-0.8,0.4-0.8,1c0,0.3,0,0.6,0,0.9c0,0.6,0.3,1,0.9,1c0.3,0,0.6,0,1,0c1.6,0,3.3,0,4.9,0c0.6,0,0.9-0.4,0.9-1.1
	c0-0.2,0-0.5,0-0.7c0-0.7-0.3-1.1-1-1.1c-0.7,0-1.4,0-2.1,0c-0.1,0-0.2,0-0.3,0C7.7,3.6,7.6,3.8,7.6,4c0,0.2,0.1,0.4,0.4,0.4
	c0.1,0,0.2,0,0.3,0C9,4.4,9.7,4.4,10.4,4.4z M20.3,6.3c0.7,0,1.3-0.6,1.3-1.4c0-0.8-0.6-1.4-1.3-1.4c-0.7,0-1.3,0.6-1.3,1.4
	C19,5.7,19.6,6.3,20.3,6.3z M27.2,6.3c0.7,0,1.3-0.6,1.3-1.4c0-0.8-0.6-1.4-1.3-1.5c-0.7,0-1.3,0.6-1.3,1.4
	C26,5.7,26.5,6.3,27.2,6.3z M23.8,6.3c0.7,0,1.3-0.6,1.3-1.4c0-0.8-0.6-1.4-1.3-1.4c-0.7,0-1.3,0.6-1.3,1.4
	C22.5,5.7,23.1,6.3,23.8,6.3z"/>
<path class="st0" d="M12,12.1c1.7,0,3.4,0.2,5,0.9c0.6,0.3,1.2,0.6,1.6,1.1c0.6,0.7,0.6,1.3,0,2c-0.7,0.7-1.6,1.1-2.5,1.4
	c-2,0.6-4,0.7-6,0.5c-1.2-0.1-2.4-0.4-3.5-1c-0.5-0.2-0.9-0.6-1.3-1c-0.5-0.6-0.5-1.2,0-1.8c0.6-0.7,1.4-1.1,2.2-1.3
	C9,12.3,10.5,12.1,12,12.1z"/>
<path class="st0" d="M19.1,16.9c0,0.8,0,1.5,0,2.3c0,0.4-0.3,0.7-0.5,0.9c-0.6,0.6-1.4,0.9-2.1,1.2c-2.1,0.7-4.2,0.8-6.3,0.5
	c-1.2-0.1-2.4-0.4-3.5-1c-0.5-0.3-0.9-0.6-1.3-1c-0.3-0.2-0.4-0.6-0.4-1c0-0.6,0-1.3,0-1.9c0,0,0.1,0,0.1,0c1.3,1.1,2.8,1.5,4.3,1.8
	c2.3,0.4,4.5,0.3,6.7-0.3C17.1,18.1,18.2,17.7,19.1,16.9z M8.9,20.7c0.2-0.1,0.4-0.2,0.4-0.5c0-0.3-0.1-0.4-0.4-0.5
	c-0.8-0.3-1.7-0.6-2.5-0.9c-0.2-0.1-0.5,0-0.6,0.2c-0.1,0.2,0,0.5,0.2,0.6c0.2,0.1,0.4,0.2,0.5,0.3C7.4,20.2,8.2,20.4,8.9,20.7z
	 M17.8,18.8c-0.2,0-0.4,0.2-0.4,0.5c0,0.3,0.2,0.5,0.4,0.5c0.2,0,0.4-0.2,0.4-0.4C18.2,19,18,18.8,17.8,18.8z M16,19.5
	c-0.2,0-0.4,0.2-0.4,0.4c0,0.3,0.2,0.5,0.4,0.5c0.2,0,0.4-0.2,0.4-0.4C16.4,19.7,16.2,19.5,16,19.5z"/>
<path class="st0" d="M19.1,20.9c0,0.7,0,1.3,0,2c0,0.4-0.3,0.8-0.5,1c-0.6,0.6-1.3,0.9-2,1.2c-2,0.7-4,0.8-6,0.7
	c-1.4-0.1-2.7-0.4-3.9-1.1c-0.5-0.2-0.9-0.6-1.3-1c-0.3-0.2-0.4-0.6-0.4-1c0-0.6,0-1.3,0-2c0.7,0.6,1.4,1,2.2,1.3
	c2,0.7,4.1,0.9,6.2,0.7c1.3-0.1,2.6-0.3,3.9-0.9C17.9,21.6,18.5,21.3,19.1,20.9z M9.4,24c0-0.2-0.2-0.3-0.4-0.4
	c-0.8-0.3-1.7-0.6-2.5-0.9c-0.3-0.1-0.5,0-0.6,0.2c-0.1,0.2,0,0.5,0.2,0.6c0.9,0.5,1.8,0.8,2.7,1C9.2,24.6,9.4,24.4,9.4,24z
	 M18.2,23.2c0-0.3-0.2-0.5-0.4-0.5c-0.2,0-0.4,0.2-0.4,0.5c0,0.3,0.2,0.5,0.4,0.5C18,23.6,18.2,23.4,18.2,23.2z M16.4,23.9
	c0-0.3-0.2-0.5-0.4-0.5c-0.2,0-0.4,0.2-0.4,0.5c0,0.3,0.2,0.5,0.4,0.5C16.2,24.3,16.4,24.2,16.4,23.9z"/>
<path d="M6.3,26.6c0.1,0,0.2,0.1,0.3,0.1c0.7,0.3,1.5,0.5,2.2,0.8c0.1,0,0.2,0,0.2,0.1c0.2,0.1,0.4,0.3,0.3,0.6
	c0,0.2-0.3,0.4-0.5,0.4C8,28.3,7,28,6.2,27.5c-0.2-0.1-0.3-0.3-0.3-0.5c0-0.2,0.2-0.3,0.3-0.4C6.2,26.6,6.3,26.6,6.3,26.6z"/>
<path d="M17.8,27.6c-0.2,0-0.4-0.2-0.4-0.4c0-0.3,0.2-0.5,0.4-0.5c0.2,0,0.4,0.2,0.4,0.5C18.2,27.3,18,27.6,17.8,27.6z"/>
<path d="M16,27.3c0.2,0,0.4,0.2,0.4,0.5c0,0.3-0.2,0.4-0.4,0.4c-0.2,0-0.4-0.2-0.4-0.5C15.6,27.5,15.8,27.3,16,27.3z"/>
<path class="st2" d="M28.6,12.9c0,2.1-1.6,3.9-3.7,4c-2.2,0.1-4.1-1.4-4.3-3.5C20.4,11.2,21.9,9.3,24,9c0.8-0.1,1.5,0,2.2,0.3
	c0.4,0.2,0.5,0.4,0.4,0.7c-0.1,0.3-0.4,0.3-0.8,0.2c-1.6-0.7-3.5,0.1-4.1,1.7c-0.6,1.6,0.3,3.4,2,3.9c1.2,0.3,2.2,0,3-0.8
	c0.8-0.9,1-2,0.6-3.1c0-0.1-0.1-0.2-0.1-0.3c-0.1-0.3,0-0.5,0.3-0.6c0.2-0.1,0.5,0,0.6,0.2C28.4,11.6,28.6,12.3,28.6,12.9z"/>
<path class="st3" d="M20.1,5.8c-0.6,0-1-0.5-1-1.2c0-0.6,0.5-1.2,1-1.1c0.6,0,1,0.5,1,1.2C21.1,5.3,20.7,5.8,20.1,5.8z M20.1,5.1
	c0.2,0,0.4-0.2,0.4-0.4c0-0.2-0.2-0.4-0.4-0.4c-0.2,0-0.4,0.2-0.4,0.4C19.7,4.9,19.9,5,20.1,5.1z"/>
<path class="st3" d="M23.7,5.8c-0.6,0-1-0.5-1-1.2c0-0.6,0.5-1.2,1-1.1c0.6,0,1,0.5,1,1.2C24.7,5.3,24.2,5.8,23.7,5.8z M23.7,5.1
	c0.2,0,0.4-0.2,0.4-0.4c0-0.2-0.2-0.4-0.4-0.4c-0.2,0-0.4,0.2-0.4,0.4C23.3,4.9,23.5,5,23.7,5.1z"/>
<path class="st3" d="M27.2,5.8c-0.6,0-1-0.5-1-1.2c0-0.6,0.5-1.2,1-1.1c0.6,0,1,0.5,1,1.2C28.3,5.3,27.8,5.8,27.2,5.8z M27.2,5.1
	c0.2,0,0.4-0.2,0.4-0.4c0-0.2-0.2-0.4-0.4-0.4c-0.2,0-0.4,0.2-0.4,0.4C26.9,4.9,27,5,27.2,5.1z"/>
<path d="M8.9,20.7c-0.7-0.3-1.5-0.5-2.2-0.8c-0.2-0.1-0.4-0.2-0.5-0.3c-0.2-0.1-0.3-0.4-0.2-0.6c0.1-0.2,0.3-0.3,0.6-0.2
	c0.8,0.3,1.7,0.6,2.5,0.9c0.3,0.1,0.4,0.3,0.4,0.5C9.3,20.5,9.2,20.6,8.9,20.7z"/>
<path d="M17.8,18.8c0.2,0,0.4,0.2,0.4,0.5c0,0.3-0.2,0.5-0.4,0.4c-0.2,0-0.4-0.2-0.4-0.5C17.4,19,17.5,18.8,17.8,18.8z"/>
<path d="M16,19.5c0.2,0,0.4,0.2,0.4,0.5c0,0.3-0.2,0.4-0.4,0.4c-0.2,0-0.4-0.2-0.4-0.5C15.6,19.6,15.8,19.4,16,19.5z"/>
<path d="M9.4,24c0,0.4-0.2,0.6-0.5,0.5c-0.9-0.2-1.9-0.5-2.7-1c-0.2-0.1-0.3-0.4-0.2-0.6c0.1-0.2,0.3-0.3,0.6-0.2
	C7.3,23,8.2,23.3,9,23.6C9.2,23.7,9.4,23.8,9.4,24z"/>
<path d="M18.2,23.2c0,0.3-0.2,0.5-0.4,0.5c-0.2,0-0.4-0.2-0.4-0.5c0-0.3,0.2-0.5,0.4-0.5C18,22.7,18.2,22.9,18.2,23.2z"/>
<path d="M16.4,23.9c0,0.3-0.2,0.5-0.4,0.4c-0.2,0-0.4-0.2-0.4-0.5c0-0.3,0.2-0.5,0.4-0.5C16.2,23.4,16.4,23.6,16.4,23.9z"/>
<g>
	<line class="st4" x1="24.3" y1="10.7" x2="24.3" y2="13.1"/>
	<line class="st4" x1="24" y1="13.1" x2="26.5" y2="13.1"/>
</g>
</svg>
