<?xml version="1.0" encoding="utf-8"?>
<!-- Generator: Adobe Illustrator 27.0.0, SVG Export Plug-In . SVG Version: 6.00 Build 0)  -->
<svg version="1.1" id="Layer_1" xmlns="http://www.w3.org/2000/svg" xmlns:xlink="http://www.w3.org/1999/xlink" x="0px" y="0px"
	 viewBox="0 0 32 32" style="enable-background:new 0 0 32 32;" xml:space="preserve">
<path d="M28.2,31.2c-0.8-0.2-1.3-0.8-1.9-1.4c-1.9-1.9-3.8-3.8-5.6-5.7c-0.5-0.5-0.9-1-1.3-1.6c-3.3,2.1-6.9,2.6-10.7,1.3
	c-2.9-1-5-2.9-6.5-5.6C-0.6,13.2,0.9,6.6,5.4,3.2c4.7-3.6,12.7-3.5,17.2,2.8c0.9-1,1.7-1.9,2.6-2.8c0.5-0.5,1.1-0.6,1.7-0.3
	c0.6,0.3,1,0.8,0.9,1.5c-0.1,0.3-0.2,0.7-0.4,0.9c-4.1,4.1-8.2,8.1-12.4,12.2c-0.7,0.7-1.5,0.7-2.3,0c-2-1.9-4-3.8-6-5.8
	C5.8,10.7,6,9.5,7,9c0.6-0.3,1.2-0.2,1.8,0.4c1.1,1,2.1,2,3.2,3c0.6,0.6,1.3,1.2,1.9,1.8c2.1-2.1,4.3-4.2,6.4-6.3
	c-1-1.6-2.4-2.8-4.2-3.6c-5.2-2.1-11.1,1-12.1,6.5c-0.6,3.5,0.4,6.4,3.2,8.7c2.7,2.2,5.8,2.6,9,1.2c3.2-1.4,5-3.9,5.4-7.3
	c0-0.4,0.2-0.8,0.5-1c0.8-0.7,1.5-1.5,2.3-2.2c0.6,3.4,0,6.4-1.8,9.3c1.1,0.3,1.8,1.3,2.5,2c1.6,1.6,3.2,3.2,4.8,4.8
	c0.6,0.6,1.2,1.1,1.4,1.9c0,0.3,0,0.7,0,1c-0.3,1-1,1.7-2,2C28.9,31.2,28.5,31.2,28.2,31.2z"/>
</svg>
