<?xml version="1.0" encoding="utf-8"?>
<!-- Generator: Adobe Illustrator 27.0.0, SVG Export Plug-In . SVG Version: 6.00 Build 0)  -->
<svg version="1.1" id="Layer_1" xmlns="http://www.w3.org/2000/svg" xmlns:xlink="http://www.w3.org/1999/xlink" x="0px" y="0px"
	 viewBox="0 0 38 16" style="enable-background:new 0 0 38 16;" xml:space="preserve">
<style type="text/css">
	.st0{fill:#0B9B9B;}
	.st1{font-family:'Calibri';}
	.st2{font-size:11.0004px;}
	.st3{fill:#0CB7BF;}
</style>
<text transform="matrix(1 0 0 1 3.8089 11.1683)" class="st0 st1 st2">CIB-BB</text>
<g>
	<g>
		<path class="st3" d="M35.1,1c1.1,0,2,0.9,2,2v10c0,1.1-0.9,2-2,2h-32c-1.1,0-2-0.9-2-2V3c0-1.1,0.9-2,2-2H35.1 M35.1,0h-32
			c-1.6,0-3,1.4-3,3v10c0,1.6,1.4,3,3,3h32c1.6,0,3-1.4,3-3V3C38.1,1.4,36.7,0,35.1,0L35.1,0z"/>
	</g>
</g>
</svg>
