<?xml version="1.0" encoding="utf-8"?>
<!-- Generator: Adobe Illustrator 27.0.0, SVG Export Plug-In . SVG Version: 6.00 Build 0)  -->
<svg version="1.1" id="Layer_1" xmlns="http://www.w3.org/2000/svg" xmlns:xlink="http://www.w3.org/1999/xlink" x="0px" y="0px"
	 viewBox="0 0 21.1 16" style="enable-background:new 0 0 21.1 16;" xml:space="preserve">
<style type="text/css">
	.st0{fill:#3A7A11;}
	.st1{font-family:'Calibri';}
	.st2{font-size:11.0004px;}
</style>
<text transform="matrix(1 0 0 1 4.3301 11.1683)" class="st0 st1 st2">DD</text>
<g>
	<g>
		<path class="st0" d="M18.1,1c1.1,0,2,0.9,2,2v10c0,1.1-0.9,2-2,2h-15c-1.1,0-2-0.9-2-2V3c0-1.1,0.9-2,2-2H18.1 M18.1,0h-15
			c-1.6,0-3,1.4-3,3v10c0,1.6,1.4,3,3,3h15c1.6,0,3-1.4,3-3V3C21.1,1.4,19.7,0,18.1,0L18.1,0z"/>
	</g>
</g>
</svg>
