<?xml version="1.0" encoding="utf-8"?>
<!-- Generator: Adobe Illustrator 27.0.0, SVG Export Plug-In . SVG Version: 6.00 Build 0)  -->
<svg version="1.1" id="Layer_1" xmlns="http://www.w3.org/2000/svg" xmlns:xlink="http://www.w3.org/1999/xlink" x="0px" y="0px"
	 viewBox="0 0 325 371" style="enable-background:new 0 0 325 371;" xml:space="preserve">
<style type="text/css">
	.st0{fill:#FF0000;}
</style>
<g>
	<path d="M161.8,357.8c-36.3,0-72.6,0.1-109-0.1c-6.2,0-12.8-0.9-18.5-3.2c-13.2-5.1-20.5-15.5-20.5-29.7
		c0.2-40.8,19.5-71.1,53.4-92.4c19.5-12.3,41.1-18.5,64.5-18.1c22.2,0.4,44.4-0.8,66.5,0.3c44.7,2.2,79.1,22.3,101,62
		c7.9,14.2,11.6,29.7,11.9,46c0.4,18.1-12.8,33.1-30.9,34.9c-3,0.3-6,0.3-9,0.3C234.7,357.8,198.3,357.8,161.8,357.8z M162.5,328.6
		c35.3,0,70.6,0,106,0c14,0,15-1.1,12.9-14.9c-5.2-33.7-31.5-61.4-66.7-67.9c-14.2-2.6-29.1-2.4-43.7-2.3
		c-18.9,0.1-38.1-0.5-56.8,2.3C76,251.4,48,281.6,44.3,318.3c-0.9,8.9,0.3,10.3,9.3,10.3C89.9,328.6,126.2,328.6,162.5,328.6z"/>
	<path class="st0" d="M69.1,106.5c0.1-51.6,41.9-93.4,93.6-93.4c51.6,0,93.5,41.8,93.7,93.4c0.1,51.4-42.5,94-93.9,93.8
		C111.1,200.2,69,157.9,69.1,106.5z M108.1,74c-15.7,24.2-11.3,58.1,10.4,78.8c21.3,20.3,55.2,23.9,76.9,8.5
		C166.4,132.3,137.3,103.3,108.1,74z M217.6,139.2c15.8-24.6,11-59.1-11.5-79.9c-23.5-21.8-57.4-20.1-75.7-7.3
		C159.3,81,188.4,110,217.6,139.2z"/>
</g>
</svg>
