<?xml version="1.0" encoding="utf-8"?>
<!-- Generator: Adobe Illustrator 27.0.0, SVG Export Plug-In . SVG Version: 6.00 Build 0)  -->
<svg version="1.1" id="Layer_1" xmlns="http://www.w3.org/2000/svg" xmlns:xlink="http://www.w3.org/1999/xlink" x="0px" y="0px"
	 viewBox="0 0 321 321" style="enable-background:new 0 0 321 321;" xml:space="preserve">
<style type="text/css">
	.st0{fill:#FF0000;}
	.st1{fill:#FFFFFF;}
</style>
<g>
	<path class="st0" d="M309.2,226.6c0,46.4-34.7,81.4-80.7,81.3c-46-0.1-80.5-35-80.6-81.5c-0.1-39.3,26-81.1,80.7-81
		C283.7,145.6,309.6,188,309.2,226.6z"/>
	<path d="M171.8,304.7c-5.9,1.2-11,3.1-16.1,3.2c-35.3,0.3-70.6,0.3-105.9,0.1c-19.4-0.2-35.5-16.5-35.6-36
		c-0.2-30.2-0.2-60.3,0-90.5c0.1-19.7,16.1-36,36-36.2c35.1-0.3,70.3-0.2,105.4,0c5.1,0,10.3,2,16.2,3.2c-4.4,4.1-7.7,7.3-11.3,10.3
		c-1,0.8-2.6,1.2-4,1.2c-35,0-70,0-104.9,0c-13.2,0-22.6,9.4-22.6,22.7c-0.1,29.2-0.1,58.3,0,87.5c0,13.7,9.2,22.9,22.9,22.9
		c34.8,0,69.6,0,104.4,0c1.5,0,3.3,0.5,4.4,1.4C164.1,297.4,167.3,300.6,171.8,304.7z"/>
	<path d="M161.4,71.2c0,32.5-26.2,59-58.5,59.2c-32.3,0.1-59-26.7-58.9-59.4c0.1-32.3,26.7-59,58.8-59
		C135,12.1,161.4,38.7,161.4,71.2z M58.9,71.1c0,24.4,19.9,44.6,43.9,44.5c24,0,44.1-20.5,43.9-44.6C146.6,46.9,126.9,27,103,26.9
		C78.8,26.8,59,46.6,58.9,71.1z"/>
	<path class="st1" d="M228.2,216.6c9.3-9.3,17.7-17.9,26.2-26.3c4.9-4.9,12.3-3.5,13.1,2.6c0.3,2.6-1.3,6.2-3.2,8.2
		c-8.1,8.6-16.6,16.8-25.3,25.5c7.7,7.7,15.2,15.2,22.7,22.7c1.2,1.2,2.4,2.3,3.5,3.5c3.5,3.8,3.6,7.9,0.3,11
		c-3.1,2.9-7.2,2.9-10.7-0.5c-7.5-7.3-14.9-14.8-22.2-22.3c-1.3-1.3-2-3.1-3.2-4.9c-9.5,9.5-17.7,18-26.3,26.1
		c-1.9,1.8-5,3.5-7.3,3.2c-2.2-0.3-5.4-2.8-5.9-4.9c-0.6-2.3,0.5-6,2.1-7.9c7-7.6,14.4-14.8,21.8-22c1.3-1.3,2.9-2.3,4.7-3.7
		c-9.1-9.1-17.7-17.4-25.9-26.1c-1.8-1.9-3.5-5-3.2-7.3c0.3-2.2,2.8-5.3,5-5.8c2.3-0.6,6,0.5,7.9,2.2c7.6,7,14.7,14.4,22,21.8
		C225.7,213.2,226.7,214.7,228.2,216.6z"/>
</g>
</svg>
