<?xml version="1.0" encoding="utf-8"?>
<!-- Generator: Adobe Illustrator 27.0.0, SVG Export Plug-In . SVG Version: 6.00 Build 0)  -->
<svg version="1.1" id="Layer_1" xmlns="http://www.w3.org/2000/svg" xmlns:xlink="http://www.w3.org/1999/xlink" x="0px" y="0px"
	 viewBox="0 0 100 100" style="enable-background:new 0 0 100 100;" xml:space="preserve">
<style type="text/css">
	.st0{fill:#ED1C24;}
</style>
<path class="st0" d="M50.2,2.5C76.4,2.6,97.7,24,97.6,50.1C97.5,76.3,76,97.6,49.8,97.5C23.7,97.4,2.4,76,2.4,49.9
	C2.5,23.7,23.9,2.4,50.2,2.5z M22.9,58.7c4,12.3,16,20.3,29,19.5c12.7-0.8,23.7-10.6,26.1-23c2.6-13.9-5.5-25.5-12.5-29
	c-1.7,2.5-3.3,5-5,7.5c11.7,9.1,9.6,22.6,3,29.4c-7.3,7.4-19.4,7.6-26.9,0.3c-3.8-3.7-5.7-8.3-5.7-13.6c0-6.7,3-11.9,8.5-15.9
	c-1.7-2.6-3.4-5.2-5.1-7.8C23.6,32.9,18.9,46.6,22.9,58.7z M45.3,49.8c3.2,0,6.2,0,9.3,0c0-11.1,0-21.9,0-32.9c-3.1,0-6.1,0-9.3,0
	C45.3,28,45.3,38.8,45.3,49.8z"/>
</svg>
