<?xml version="1.0" encoding="utf-8"?>
<!-- Generator: Adobe Illustrator 27.0.0, SVG Export Plug-In . SVG Version: 6.00 Build 0)  -->
<svg version="1.1" id="Layer_1" xmlns="http://www.w3.org/2000/svg" xmlns:xlink="http://www.w3.org/1999/xlink" x="0px" y="0px"
	 viewBox="0 0 634 632" style="enable-background:new 0 0 634 632;" xml:space="preserve">
<style type="text/css">
	.st0{fill:#FFFFFF;}
</style>
<path class="st0" d="M628.5,316.3c0,171.5-139,310.5-310.5,310.5S7.5,487.7,7.5,316.3C7.5,144.8,146.5,5.8,318,5.8
	C489.4,5.8,628.4,144.7,628.5,316.3C628.5,316.2,628.5,316.2,628.5,316.3z M361.6,316.6l118.9-118.9c12-12.3,11.8-31.9-0.4-43.9
	c-12.1-11.8-31.4-11.8-43.5,0L317.8,272.7l-119-118.9c-12.3-12-31.9-11.8-43.9,0.4c-11.8,12.1-11.8,31.4,0,43.5l119,118.9l-119,119
	c-11.7,12.5-11.1,32.2,1.4,43.9c12,11.2,30.6,11.2,42.5,0l118.9-118.9l118.9,118.9c12.3,12,31.9,11.8,43.9-0.4
	c11.8-12.1,11.8-31.4,0-43.5L361.6,316.6z"/>
</svg>
