<?xml version="1.0" encoding="utf-8"?>
<!-- Generator: Adobe Illustrator 27.0.0, SVG Export Plug-In . SVG Version: 6.00 Build 0)  -->
<svg version="1.1" id="Layer_1" xmlns="http://www.w3.org/2000/svg" xmlns:xlink="http://www.w3.org/1999/xlink" x="0px" y="0px"
	 viewBox="0 0 800 800" style="enable-background:new 0 0 800 800;" xml:space="preserve">
<path d="M381.5,550.2c4.7,5.2,11.4,8.1,18.4,8.1c7,0,13.7-3,18.5-8.1l133.3-145.8c9.3-10.2,8.6-26-1.6-35.3
	c-10.2-9.3-26-8.6-35.3,1.6L425,468.9V100c0-13.8-11.2-25-25-25c-13.8,0-25,11.2-25,25v368.9l-89.9-98.3
	c-9.3-10.2-25.1-10.9-35.3-1.6c-10.2,9.3-10.9,25.1-1.6,35.3L381.5,550.2z"/>
<path d="M125,500c0-13.8-11.2-25-25-25c-13.8,0-25,11.2-25,25v1.8c0,45.6,0,82.3,3.9,111.2c4,30,12.7,55.3,32.7,75.3
	c20.1,20.1,45.3,28.7,75.3,32.7c28.9,3.9,65.6,3.9,111.2,3.9h203.7c45.6,0,82.3,0,111.2-3.9c30-4,55.3-12.7,75.3-32.7
	c20.1-20.1,28.7-45.3,32.7-75.3c3.9-28.9,3.9-65.6,3.9-111.2V500c0-13.8-11.2-25-25-25c-13.8,0-25,11.2-25,25
	c0,47.8-0.1,81.2-3.4,106.4c-3.3,24.5-9.3,37.4-18.5,46.6c-9.2,9.2-22.2,15.2-46.6,18.5c-25.2,3.4-58.6,3.4-106.4,3.4H300
	c-47.8,0-81.2-0.1-106.4-3.4c-24.5-3.3-37.4-9.3-46.6-18.5c-9.2-9.2-15.2-22.2-18.5-46.6C125.1,581.2,125,547.8,125,500z"/>
</svg>
