<?xml version="1.0" encoding="utf-8"?>
<!-- Generator: Adobe Illustrator 27.0.0, SVG Export Plug-In . SVG Version: 6.00 Build 0)  -->
<svg version="1.1" id="Layer_1" xmlns="http://www.w3.org/2000/svg" xmlns:xlink="http://www.w3.org/1999/xlink" x="0px" y="0px"
	 viewBox="0 0 64 64" style="enable-background:new 0 0 64 64;" xml:space="preserve">
<style type="text/css">
	.st0{fill:none;stroke:#F90C06;stroke-width:4;stroke-miterlimit:10;}
	.st1{fill:none;stroke:#111111;stroke-width:4;stroke-linecap:round;stroke-linejoin:round;stroke-miterlimit:10;}
	.st2{fill:#231F20;stroke:#000000;stroke-width:0.2846;stroke-miterlimit:10;}
</style>
<path class="st0" d="M18.2,60.9h-7.3c-3.8,0-7-3.1-7-7V10.1c0-3.8,3.2-7,7-7H40l14.7,16.2v10.9"/>
<path class="st0" d="M54.7,19.3H47c-3.8,0-7-3.1-7-7V3.1"/>
<g>
	<polyline class="st1" points="17.8,23.7 29.1,35.2 40.4,23.7 	"/>
	<line class="st1" x1="29.1" y1="35.2" x2="29.1" y2="13.2"/>
</g>
<g>
	<path class="st2" d="M24,62.9V44.2h4.7c1.8,0,2.9,0.1,3.5,0.3c0.8,0.3,1.5,0.9,2.1,1.8c0.6,0.9,0.8,2.2,0.8,3.6
		c0,1.1-0.2,2.1-0.5,2.9c-0.3,0.8-0.7,1.4-1.2,1.8c-0.5,0.4-1,0.7-1.5,0.9c-0.7,0.2-1.7,0.3-3,0.3h-1.9v7H24z M26.9,47.4v5.3h1.6
		c1.1,0,1.9-0.1,2.3-0.3c0.4-0.2,0.7-0.5,0.9-0.9C31.9,51,32,50.6,32,50c0-0.7-0.2-1.2-0.5-1.7c-0.3-0.4-0.7-0.7-1.2-0.8
		c-0.3-0.1-1-0.1-2.1-0.1H26.9z"/>
	<path class="st2" d="M37.4,44.2h5.3c1.2,0,2.1,0.1,2.7,0.4c0.8,0.3,1.6,0.9,2.2,1.7s1.1,1.8,1.4,3c0.3,1.2,0.5,2.7,0.5,4.4
		c0,1.5-0.1,2.9-0.4,4c-0.4,1.4-0.9,2.5-1.5,3.3c-0.5,0.6-1.2,1.1-2,1.5c-0.6,0.3-1.5,0.4-2.6,0.4h-5.5V44.2z M40.3,47.4v12.4h2.2
		c0.8,0,1.4-0.1,1.8-0.2c0.5-0.2,0.9-0.4,1.2-0.8c0.3-0.4,0.6-1,0.8-1.8c0.2-0.8,0.3-2,0.3-3.4c0-1.4-0.1-2.6-0.3-3.3
		s-0.5-1.4-0.8-1.8C45,48,44.5,47.7,44,47.5c-0.4-0.1-1.2-0.2-2.4-0.2H40.3z"/>
	<path class="st2" d="M52,62.9V44.2h9.9v3.2h-7v4.4h6V55h-6v7.9H52z"/>
</g>
</svg>
