<?xml version="1.0" encoding="utf-8"?>
<!-- Generator: Adobe Illustrator 27.0.0, SVG Export Plug-In . SVG Version: 6.00 Build 0)  -->
<svg version="1.1" id="Outline" xmlns="http://www.w3.org/2000/svg" xmlns:xlink="http://www.w3.org/1999/xlink" x="0px" y="0px"
	 viewBox="0 0 512 512" style="enable-background:new 0 0 512 512;" xml:space="preserve">
<style type="text/css">
	.st0{fill:#AF7510;}
</style>
<rect x="125.5" y="142.1" transform="matrix(0.7071 -0.7071 0.7071 0.7071 -35.4185 285.6138)" class="st0" width="403.1" height="87"/>
<path class="st0" d="M398,19.8L158,262c-14.8,28.5-8.1,82-8.1,82c0,11.8,9.6,21.3,21.3,21.3c0,0,51.1,2.9,74.8-7.4l246.2-244
	c26-26,26-68.1,0-94.2C465.8-5.3,424.3-5.3,398,19.8z M462,83.8L201.9,343.9c-12,12-7.8,0.3-24.8,0.3h-7.3v-7.3
	c0-17-13.7-14.8-1.7-26.8L428.2,50c9.5-9,24.4-9,33.8,0C471.3,59.4,471.3,74.5,462,83.8z"/>
<path class="st0" d="M490.7,191.6c-11.8,0-21.3,9.6-21.3,21.3V320H384c-35.3,0-64,28.7-64,64v85.3H106.7c-35.3,0-64-28.7-64-64
	V106.7c0-35.3,28.7-64,64-64h192.9c11.8,0,21.3-9.6,21.3-21.3S311.3,0,299.6,0H106.7C47.8,0.1,0.1,47.8,0,106.7v298.7
	C0.1,464.2,47.8,511.9,106.7,512h242c28.3,0.1,55.5-11.2,75.4-31.2l56.7-56.7c20.1-20,31.3-47.1,31.3-75.4V212.9
	C512,201.1,502.4,191.6,490.7,191.6z M393.9,450.6c-8.6,8.6-19.4,14.5-31.3,17.1V384c0-11.8,9.6-21.3,21.3-21.3h83.7
	c-2.6,11.8-8.6,22.6-17.1,31.2L393.9,450.6z"/>
<polygon points="247.1,357.7 83.8,422.9 157.6,261.9 "/>
</svg>
