<svg xmlns="http://www.w3.org/2000/svg" xmlns:xlink="http://www.w3.org/1999/xlink" version="1.1" x="0px" y="0px" viewBox="0 0 16 20" style="enable-background:new 0 0 16 16;" xml:space="preserve"><g><path d="M13.5,15h-11C2.224,15,2,14.776,2,14.5v-8C2,6.224,2.224,6,2.5,6h11C13.776,6,14,6.224,14,6.5v8   C14,14.776,13.776,15,13.5,15z M3,14h10V7H3V14z"/><path d="M11.5,7C11.224,7,11,6.776,11,6.5V5c0-1.654-1.346-3-3-3S5,3.346,5,5v1.5C5,6.776,4.776,7,4.5,7S4,6.776,4,6.5V5   c0-2.206,1.794-4,4-4c2.206,0,4,1.794,4,4v1.5C12,6.776,11.776,7,11.5,7z"/><path d="M7,13c-0.132,0-0.26-0.053-0.354-0.146l-2-2c-0.195-0.195-0.195-0.512,0-0.707s0.512-0.195,0.707,0l1.622,1.622   l3.148-3.598c0.182-0.209,0.499-0.229,0.705-0.047c0.208,0.182,0.229,0.497,0.047,0.705l-3.5,4C7.285,12.934,7.155,12.995,7.017,13   C7.011,13,7.005,13,7,13z"/></g><text x="0" y="31" fill="#000000" font-size="5px" font-weight="bold" font-family="'Helvetica Neue', Helvetica, Arial-Unicode, Arial, Sans-serif">Created by icon 54</text><text x="0" y="36" fill="#000000" font-size="5px" font-weight="bold" font-family="'Helvetica Neue', Helvetica, Arial-Unicode, Arial, Sans-serif">from the Noun Project</text></svg>