<?xml version="1.0" encoding="utf-8"?>
<!-- Generator: Adobe Illustrator 27.0.0, SVG Export Plug-In . SVG Version: 6.00 Build 0)  -->
<svg version="1.1" id="Layer_1" xmlns="http://www.w3.org/2000/svg" xmlns:xlink="http://www.w3.org/1999/xlink" x="0px" y="0px"
	 viewBox="0 0 200 200" style="enable-background:new 0 0 200 200;" xml:space="preserve">
<style type="text/css">
	.st0{fill:#EF0F0F;stroke:#B70202;stroke-width:1.012;stroke-miterlimit:10;}
</style>
<path class="st0" d="M143.5,78.4c14.8,0,25.7,9.7,28.3,24.2c0.3,1.6,0.4,3.3,0.4,5c0,19,0.1,38.1,0,57.1c0,14.4-9.7,26.1-23.8,28.8
	c-1.8,0.3-3.6,0.5-5.4,0.5c-28.6,0-57.2,0-85.9,0c-16.4,0-29.2-12.8-29.3-29.1c-0.1-19.1-0.1-38.2,0-57.2c0-15.8,12-28.3,27.8-29.1
	c0.3,0,0.6-0.1,1.1-0.1c0-0.7,0-1.3,0-1.9c0-10-0.2-19.9,0.2-29.9C57.5,29,70.5,12.8,87.4,8c2.9-0.8,5.9-1.3,8.8-1.9
	c2.5,0,5,0,7.5,0c3.3,0.7,6.7,1.1,9.8,2.2c16.7,6,26.5,17.8,29.2,35.3c0.6,4.2,0.4,8.5,0.6,12.9V78.4z M128.8,56.6
	c0-3,0.2-5.9,0-8.8c-0.7-10.4-5.3-18.5-14.4-23.5c-16-8.8-38.5-1.5-42.6,19.3c-0.4,1.8-0.5,3.7-0.5,5.6c-0.1,9.3,0,18.7,0,28
	c0,0.4,0,0.7,0.1,1.3c0.7,0,1.3,0,2,0c18.6,0,36.8,0,55.6,0L128.8,56.6z M91.8,157C91.8,157,91.8,157,91.8,157c0,3,0,6,0,9.1
	c0.1,3,1.3,5.4,4.1,6.8c4.6,2.4,12.3,0.6,12.3-7.3c0-5.2,0.1-10.3,0-15.5c-0.1-2.2,0.1-4,2.4-5c0.6-0.3,1.1-0.9,1.6-1.4
	c4.8-5.2,5.6-13,2-19.1c-3.7-6.2-10.9-9.4-17.8-7.7c-7,1.8-11.3,6.4-12.5,13.5c-1,6.6,1.4,11.9,7,15.8c0.5,0.4,0.9,1.2,1,1.8
	C91.9,151,91.8,154,91.8,157z"/>
</svg>
