<?xml version="1.0" encoding="utf-8"?>
<!-- Generator: Adobe Illustrator 27.0.0, SVG Export Plug-In . SVG Version: 6.00 Build 0)  -->
<svg version="1.1" id="Layer_1" xmlns="http://www.w3.org/2000/svg" xmlns:xlink="http://www.w3.org/1999/xlink" x="0px" y="0px"
	 viewBox="0 0 32 32" style="enable-background:new 0 0 32 32;" xml:space="preserve">
<style type="text/css">
	.st0{fill-rule:evenodd;clip-rule:evenodd;}
	.st1{fill:none;stroke:#231F20;stroke-miterlimit:10;}
</style>
<polygon class="st0" points="20.7,1 3.5,1 3.5,18.3 5.6,18.3 5.6,3.1 19.4,3.1 26.5,10.2 26.5,18.3 28.6,18.3 28.6,8.9 20.7,1 "/>
<polygon class="st0" points="3.3,30.8 3.3,21.4 5.5,21.4 5.5,29.2 9.5,29.2 9.5,30.8 "/>
<path class="st0" d="M14.6,21.2c1.5,0,2.6,0.5,3.4,1.4c0.8,0.9,1.1,2.1,1.1,3.5c0,1.5-0.4,2.8-1.3,3.7C17,30.6,16,31,14.6,31
	c-1.5,0-2.6-0.5-3.4-1.4c-0.8-0.9-1.1-2.1-1.1-3.5c0-1.5,0.4-2.7,1.3-3.6C12.2,21.6,13.3,21.2,14.6,21.2z M14.6,22.9
	c-0.8,0-1.4,0.3-1.8,1c-0.4,0.6-0.6,1.3-0.6,2.2c0,1,0.2,1.9,0.7,2.4c0.4,0.5,1,0.8,1.7,0.8c0.8,0,1.4-0.3,1.8-1
	c0.4-0.6,0.6-1.3,0.6-2.2c0-1-0.2-1.8-0.7-2.4C15.9,23.2,15.3,22.9,14.6,22.9z"/>
<path class="st0" d="M28.7,25.6v4.8c-0.5,0.2-0.9,0.3-1.1,0.4c-0.7,0.2-1.4,0.3-2.2,0.3c-1.6,0-2.7-0.4-3.5-1.2
	c-0.9-0.9-1.3-2.1-1.3-3.6c0-1.8,0.6-3.1,1.7-4c0.8-0.7,1.9-1,3.3-1c1.2,0,2.3,0.2,3.3,0.6l-0.7,1.7c-0.5-0.2-0.9-0.4-1.3-0.5
	c-0.4-0.1-0.8-0.1-1.2-0.1c-1,0-1.8,0.3-2.3,1c-0.4,0.6-0.6,1.3-0.6,2.2c0,1.1,0.3,1.9,0.9,2.5c0.5,0.5,1.1,0.7,1.8,0.7
	c0.4,0,0.8-0.1,1.2-0.2v-1.9H25v-1.7H28.7z"/>
<line class="st1" x1="7.8" y1="7.8" x2="16.4" y2="7.8"/>
<line class="st1" x1="7.8" y1="11.5" x2="23.4" y2="11.5"/>
<line class="st1" x1="7.8" y1="15.2" x2="23.4" y2="15.2"/>
</svg>
