<?xml version="1.0" encoding="utf-8"?>
<!-- Generator: Adobe Illustrator 27.0.0, SVG Export Plug-In . SVG Version: 6.00 Build 0)  -->
<svg version="1.1" id="Layer_1" xmlns="http://www.w3.org/2000/svg" xmlns:xlink="http://www.w3.org/1999/xlink" x="0px" y="0px"
	 viewBox="0 0 272.9 44" style="enable-background:new 0 0 272.9 44;" xml:space="preserve">
<style type="text/css">
	.st0{display:none;fill:#1F366A;}
	.st1{fill:#1F366A;}
	.st2{fill:#FFFFFF;}
	.st3{fill:#8BC53D;}
	.st4{fill:#4B91D5;}
	.st5{fill:#1F356D;}
	.st6{fill:#1C75BC;stroke:#FFFFFF;stroke-width:2;stroke-miterlimit:10;}
	.st7{font-family:'MyriadPro-Bold';}
	.st8{font-size:42.5087px;}
	.st9{fill:#8BC53D;stroke:#FFFFFF;stroke-width:2;stroke-miterlimit:10;}
</style>
<rect class="st0" width="272.9" height="44"/>
<g>
	<path class="st1" d="M23.2,41.5c-4.1-6.4-9.5-13.2-18.4-16l-1.7-0.5l1.7-0.4c0.2-0.1,0.5-0.1,0.9-0.1c2,0,6,1,9.1,2.5
		c3,1.5,5.7,3.4,8,5.7c0.2-0.3,0.5-0.6,0.7-0.9c0.8-1,1.5-2,2.3-3c5.9-7.2,11.8-11.9,18.5-14.9c2-0.9,4.1-1.5,6-2l0.3,0.9
		c-2.5,1-4.9,2.4-7.2,4.1C39,20.2,34.9,24.6,31,30.3c-1.6,2.3-3.1,4.8-4.6,7.2c-0.7,1.1-1.3,2.2-2,3.2c-0.1,0.2-0.9,1.5-0.9,1.5
		L23.2,41.5z"/>
	<path class="st2" d="M50.6,12.3c-2.6,1.1-5,2.5-7.3,4.2c-5,3.8-9.1,8.4-12.7,13.5c-2.3,3.4-4.4,6.9-6.6,10.4
		c-0.1,0.2-0.3,0.5-0.5,0.8C18.9,33.9,13.5,27.6,5,25c0.2,0,0.4-0.1,0.7-0.1c2,0,6,1,8.9,2.5c3.1,1.6,5.8,3.5,8.3,6
		c1.2-1.5,2.3-2.9,3.4-4.3c5.1-6.2,11-11.4,18.4-14.8C46.6,13.4,48.6,12.8,50.6,12.3 M50.3,11.3c-1.9,0.5-4.1,1.1-6.1,2
		c-6.8,3.1-12.7,7.8-18.7,15.1c-0.8,1-1.6,2-2.4,3c-0.1,0.2-0.3,0.3-0.4,0.5c-2.3-2.1-4.9-3.9-7.8-5.4c-3.1-1.6-7.3-2.6-9.3-2.6
		c-0.4,0-0.7,0-1,0.1l-3.4,0.9L4.7,26c8.7,2.7,14,9.5,18.1,15.8l0.9,1.3l0.8-1.4l0.2-0.3c0.1-0.2,0.2-0.3,0.3-0.5
		c0.7-1.1,1.3-2.2,2-3.2c1.4-2.4,2.9-4.8,4.5-7.1c3.9-5.6,7.9-9.9,12.5-13.3c2.2-1.7,4.6-3,7.1-4L50.3,11.3L50.3,11.3z"/>
</g>
<path class="st3" d="M35,11.3c-2-0.7-3.5-2.1-4.5-3.9C30.2,6.9,30,7,29.6,7.2c-1.1,0.6-2.2,1.1-3.3,1.7c-0.2-0.2-0.5-0.5-0.8-0.7
	C26,6.9,29.6,4,31.2,3.5c1.4,3.9,4.2,6.3,8.2,7.9C33.6,14,30,18.7,27.1,23.9c-0.1-0.6,0.6-2.9,1.6-4.7c0.8-1.5,1.7-2.9,2.7-4.2
	C32.5,13.6,33.8,12.5,35,11.3z"/>
<path class="st4" d="M2.6,11.4c3.9-1.5,6.7-3.9,8.2-7.9c2.2,1.2,4,2.7,5.7,4.6c-0.3,0.3-0.7,0.6-0.9,0.8c-1.2-0.6-2.3-1.2-3.4-1.7
	c-0.2-0.1-0.7,0-0.7,0.1c-1.1,1.9-2.6,3.3-4.8,4.2c2.1,1.6,3.9,3.3,5.2,5.5c1.3,2.1,2.4,4.4,2.9,6.9C11.9,18.6,8.3,14,2.6,11.4z"/>
<path class="st4" d="M23.5,7.1c2.1,3,5.1,4.6,9,5c-4.4,3.6-6.4,8.5-7.9,13.7c-0.1-2.3,0.3-4.5,1-6.6c0.7-2.2,1.8-4.2,3.4-6
	c-2.2-0.3-4-1.3-5.5-2.9c-2.9,1.9-4.6,4.7-5.3,8.2C17.7,14.9,20.6,9.5,23.5,7.1z"/>
<path class="st5" d="M17.4,26c-1.5-5.3-3.5-10.3-8-14c3.8-0.5,6.9-2,9.1-5.2C19,7.5,19.5,8.1,20,8.7c0.1,0.1,0.1,0.5,0,0.6
	c-0.3,0.5-0.6,0.9-0.9,1.4c-0.2-0.1-0.5-0.3-0.8-0.4c-1.4,1.5-3.2,2.5-5.4,2.8C16.2,16.9,17.3,21.3,17.4,26z"/>
<path class="st3" d="M25.3,15.3c0,0.7-0.8,1.6-1.3,1.6c-0.9,0-1.7-0.7-1.7-1.6c0-0.9,0.7-1.6,1.6-1.6C24.6,13.6,25.3,14.5,25.3,15.3
	z"/>
<g>
	<text transform="matrix(1 0 0 1 53.6855 37.5283)"><tspan x="0" y="0" class="st6 st7 st8">Lend</tspan><tspan x="94.4" y="0" class="st9 st7 st8">Facile</tspan></text>
</g>
</svg>
