<?xml version="1.0" encoding="utf-8"?>
<!-- Generator: Adobe Illustrator 27.0.0, SVG Export Plug-In . SVG Version: 6.00 Build 0)  -->
<svg version="1.1" id="Layer_1" xmlns="http://www.w3.org/2000/svg" xmlns:xlink="http://www.w3.org/1999/xlink" x="0px" y="0px"
	 viewBox="0 0 400 400" style="enable-background:new 0 0 400 400;" xml:space="preserve">
<style type="text/css">
	.st0{fill:#EA2127;}
</style>
<g>
	<path class="st0" d="M181.7,272.5c0,1.2,1.5,4.9-3.8,8.2c0,0-5.7,3.3-9.6-3.9c-0.8-1.4-45.6-76.3-63.5-102.1c-1.2-1.7-3.2-7-8.3-7
		c-5,0-7.5,5.3-8.5,7c-17,26.1-60.9,101.7-60.9,101.7s-3.9,7.6-10.4,4.4c-5.2-2.6-3.4-8.3-3.4-8.3L89.5,34.1c0,0,1.1-7.1,7.1-7.1
		c6.2,0,7.2,7.1,7.2,7.1L181.7,272.5z"/>
	<path class="st0" d="M386.1,272.5c0,1.2,1.5,4.9-3.8,8.2c0,0-5.7,3.8-9.6-3.4c-0.8-1.4-45.6-76.8-63.5-102.6c-1.2-1.7-3.2-7-8.3-7
		c-5,0-7.5,5.3-8.5,7c-17,26.1-60.9,101.7-60.9,101.7s-4.2,7.7-10.6,4.3c-5-2.6-3.2-8.2-3.2-8.2l76.2-238.4c0,0,1.1-7.1,7.1-7.1
		c6.2,0,7.2,7.1,7.2,7.1L386.1,272.5z"/>
	<g>
		<path class="st0" d="M78.7,372.7H65v-37.4l-10,24.2h-9.4l-10-24.2v37.4h-13v-56.4h15.9l12.2,27.9l12.2-27.9h15.9V372.7z"/>
		<path class="st0" d="M102.7,324.1H89v-10.4h13.7V324.1z M102.3,372.7H89.4v-42.6h12.9V372.7z"/>
		<path class="st0" d="M132.6,373.9c-3.4,0-6.6-0.4-9.4-1.3c-2.8-0.9-5.3-2.2-7.4-4.1c-2.1-1.8-3.7-4.2-4.8-7
			c-1.2-2.8-1.7-6.1-1.7-9.9c0-4.1,0.6-7.5,1.9-10.4c1.3-2.9,3-5.2,5.1-7c2.1-1.8,4.5-3.1,7.3-3.9c2.8-0.8,5.7-1.2,8.7-1.2
			c2.3,0,4.6,0.3,6.9,0.8c2.3,0.6,4.6,1.4,6.9,2.6v11.4h-1.7c-0.5-0.5-1.1-1-1.9-1.7c-0.7-0.6-1.6-1.2-2.5-1.7c-0.9-0.5-2-1-3.2-1.3
			c-1.2-0.4-2.5-0.5-4-0.5c-3.3,0-5.9,1.2-7.7,3.5c-1.8,2.4-2.7,5.5-2.7,9.5c0,4.3,1,7.5,2.9,9.5c1.9,2.1,4.5,3.2,7.7,3.2
			c1.6,0,3.1-0.2,4.3-0.6c1.2-0.4,2.3-0.8,3.2-1.4c0.9-0.5,1.6-1.1,2.2-1.7c0.6-0.6,1.1-1,1.6-1.5h1.7v11.4
			c-0.7,0.3-1.6,0.7-2.6,1.1c-1,0.4-2,0.8-3,1.1c-1.3,0.4-2.4,0.6-3.5,0.8C135.8,373.8,134.4,373.9,132.6,373.9z"/>
		<path class="st0" d="M180,342.7h-1.1c-0.5-0.2-1.2-0.3-2.1-0.4c-0.9-0.1-2-0.1-3.1-0.1c-1.4,0-2.8,0.2-4.3,0.6
			c-1.5,0.4-2.9,0.9-4.3,1.4v28.5h-12.9v-42.6h12.9v6.1c0.6-0.5,1.4-1.2,2.5-2.1c1-0.8,2-1.5,2.9-2c0.9-0.6,2-1.1,3.3-1.5
			c1.2-0.4,2.4-0.6,3.5-0.6c0.4,0,0.9,0,1.4,0c0.5,0,1,0.1,1.4,0.1V342.7z"/>
		<path class="st0" d="M224.8,351.5c0,7-1.9,12.5-5.6,16.5c-3.7,4-9,6-15.8,6c-6.8,0-12-2-15.8-6c-3.8-4-5.6-9.6-5.6-16.5
			c0-7.1,1.9-12.6,5.6-16.6c3.8-4,9-6,15.8-6c6.8,0,12.1,2,15.8,6C222.9,338.9,224.8,344.4,224.8,351.5z M211.5,351.5
			c0-2.5-0.2-4.6-0.6-6.3c-0.4-1.7-1-3-1.7-4.1c-0.8-1-1.6-1.8-2.6-2.2c-1-0.4-2.1-0.6-3.3-0.6c-1.2,0-2.2,0.2-3.1,0.6
			c-0.9,0.4-1.8,1.1-2.6,2.1c-0.7,1-1.3,2.4-1.8,4.1c-0.4,1.7-0.7,3.9-0.7,6.5c0,2.6,0.2,4.7,0.6,6.3c0.4,1.6,1,2.9,1.6,3.8
			c0.7,1,1.6,1.7,2.6,2.2c1,0.5,2.2,0.7,3.4,0.7c1,0,2.1-0.2,3.2-0.7c1.1-0.5,1.9-1.1,2.6-2c0.8-1.1,1.3-2.4,1.7-3.9
			C211.3,356.3,211.5,354.2,211.5,351.5z"/>
		<path class="st0" d="M288.6,372.7h-13.8v-37.4l-10,24.2h-9.4l-10-24.2v37.4h-13v-56.4h15.9l12.2,27.9l12.2-27.9h15.9V372.7z"/>
		<path class="st0" d="M322.1,368.2c-0.9,0.8-1.7,1.4-2.4,2c-0.7,0.6-1.7,1.2-2.8,1.8c-1.2,0.6-2.3,1-3.4,1.3
			c-1.1,0.3-2.6,0.5-4.6,0.5c-3.7,0-6.7-1.3-9.1-3.8c-2.4-2.5-3.6-5.7-3.6-9.5c0-3.1,0.6-5.7,1.9-7.7c1.2-1.9,3-3.5,5.3-4.6
			c2.3-1.2,5.1-2,8.4-2.4c3.2-0.5,6.7-0.8,10.5-1v-0.2c0-2.4-0.8-4-2.5-4.9c-1.7-0.9-4.2-1.3-7.6-1.3c-1.5,0-3.3,0.3-5.4,0.9
			c-2,0.6-4,1.3-6,2.2h-1.1v-10.3c1.3-0.4,3.3-0.8,6.2-1.3c2.9-0.5,5.7-0.8,8.7-0.8c7.1,0,12.4,1.2,15.6,3.7
			c3.3,2.4,4.9,6.2,4.9,11.2v29h-12.9V368.2z M322.1,361.6v-8.9c-2.2,0.2-4,0.4-5.3,0.6c-1.3,0.2-2.7,0.5-4,1c-1.1,0.4-2,1-2.6,1.8
			c-0.6,0.8-0.9,1.9-0.9,3.3c0,2,0.5,3.4,1.6,4.1c1,0.8,2.6,1.1,4.6,1.1c1.1,0,2.3-0.3,3.5-0.8C320.1,363.3,321.2,362.6,322.1,361.6
			z"/>
		<path class="st0" d="M364.9,373.9c-3.4,0-6.6-0.4-9.4-1.3c-2.8-0.9-5.3-2.2-7.4-4.1c-2.1-1.8-3.7-4.2-4.8-7
			c-1.2-2.8-1.7-6.1-1.7-9.9c0-4.1,0.6-7.5,1.9-10.4c1.3-2.9,3-5.2,5.1-7c2.1-1.8,4.5-3.1,7.3-3.9c2.8-0.8,5.7-1.2,8.7-1.2
			c2.3,0,4.6,0.3,6.9,0.8c2.3,0.6,4.6,1.4,6.9,2.6v11.4h-1.7c-0.5-0.5-1.2-1-1.9-1.7c-0.8-0.6-1.6-1.2-2.5-1.7c-0.9-0.5-2-1-3.2-1.3
			c-1.2-0.4-2.5-0.5-3.9-0.5c-3.3,0-5.9,1.2-7.7,3.5c-1.8,2.4-2.7,5.5-2.7,9.5c0,4.3,1,7.5,2.9,9.5c1.9,2.1,4.5,3.2,7.7,3.2
			c1.6,0,3-0.2,4.3-0.6c1.2-0.4,2.3-0.8,3.2-1.4c0.9-0.5,1.6-1.1,2.2-1.7c0.6-0.6,1.2-1,1.6-1.5h1.7v11.4c-0.7,0.3-1.6,0.7-2.6,1.1
			c-1,0.4-2,0.8-3,1.1c-1.3,0.4-2.4,0.6-3.5,0.8C368.2,373.8,366.7,373.9,364.9,373.9z"/>
	</g>
	<path class="st0" d="M387.4,295.7c0,4.4-3.3,7-7.1,7l-359.7,0.1c-4.3,0-7-3.1-7-7v-2.7c0-3.7,2.7-7,7-7l359.6,0.2c3.8,0,7,2.9,7,7
		L387.4,295.7z"/>
	<path class="st0" d="M125.4,27.1l150.9,0.2c0,0,2.6-0.3,5,2.2c2.4,2.5,2.1,5.8,2.1,5.8l-76.1,238.4c0,0-1.1,7-7.1,7
		c-6.2,0-7.2-7-7.2-7L115.5,36.9c0,0-1.4-3.7,0.9-7C118.7,26.4,125.4,27.1,125.4,27.1z M211.4,83.1c0,0-0.5-2.9,1.8-4.9
		c2.7-2.3,5.2-2.2,5.2-2.2h21.5c4.6,0,7-4.3,7-7.1v-8.4c0-2.8-3-6.4-7-6.5h-78.5c-4.8,0-7.4,3.3-7.4,6.5V69c0,4.3,2.7,7,7.4,7.1
		h20.9c0,0,2.5-0.2,4.9,2.2c2.7,2.7,2.2,4.8,2.2,4.8v107c0,3.1,2.8,7.1,7,7.1l7.9,0c4.3,0,7-3.4,7-7L211.4,83.1z"/>
</g>
</svg>
