<?xml version="1.0" encoding="utf-8"?>
<!-- Generator: Adobe Illustrator 27.0.0, SVG Export Plug-In . SVG Version: 6.00 Build 0)  -->
<svg version="1.1" id="Layer_1" xmlns="http://www.w3.org/2000/svg" xmlns:xlink="http://www.w3.org/1999/xlink" x="0px" y="0px"
	 viewBox="0 0 100 100" style="enable-background:new 0 0 100 100;" xml:space="preserve">
<style type="text/css">
	.st0{fill:#FFFFFF;}
</style>
<g>
	<path d="M100,49.9c-4.3,5.4-9.4,10.1-14.8,14.4c-6.9,5.3-14.4,9.4-22.7,11.8c-10.9,3-21.4,2.1-31.7-2.4C18.6,68.4,8.4,60.2,0,50
		c0.8-0.8,1.3-1.7,2.1-2.4c7.5-8.4,16.1-15.4,26.5-20.3c14.4-6.9,28.9-6.9,43.2,0c11.1,5.3,20.5,12.8,28.1,22.3
		C99.8,49.5,99.8,49.7,100,49.9z M49.9,69c10.7,0,19.3-8.4,19.3-19.1c0-10.5-8.4-19.1-19.1-19.3c-10.5,0-19.3,8.4-19.3,19.1
		S39.2,69,49.9,69z"/>
	<path d="M49.9,62.1c-6.9,0-12.4-5.4-12.4-12.4c0-6.8,5.4-12.4,12.2-12.4s12.4,5.4,12.4,12.2C62.3,56.6,56.8,62.1,49.9,62.1z
		 M48,42.4c-0.4,4.7,4.1,9.4,8.6,9.2c0.2,0,0.8-0.4,0.8-0.8C58.5,45.7,53.3,40.9,48,42.4z"/>
	<path class="st0" d="M48,42.4c5.1-1.5,10.5,3.4,9.4,8.6c0,0.4-0.6,0.8-0.8,0.8C52.2,51.7,47.8,47,48,42.4z"/>
</g>
</svg>
