<?xml version="1.0" encoding="utf-8"?>
<!-- Generator: Adobe Illustrator 27.0.0, SVG Export Plug-In . SVG Version: 6.00 Build 0)  -->
<svg version="1.1" id="Layer_1" xmlns="http://www.w3.org/2000/svg" xmlns:xlink="http://www.w3.org/1999/xlink" x="0px" y="0px"
	 viewBox="0 0 536 189.4" style="enable-background:new 0 0 536 189.4;" xml:space="preserve">
<style type="text/css">
	.st0{fill:#002956;}
	.st1{fill:#8BC53D;}
	.st2{fill:#5CB5FF;}
</style>
<path class="st0" d="M102.7,189.4c-23-35.6-49.7-66.5-91.4-79.5c7.1-1.8,30.8,3.4,47.2,11.8c15,7.6,28.6,17.3,40.8,29.4
	c5.7-7.2,11.1-14.4,16.8-21.2c25.1-30.2,53.8-56.2,90.1-72.5c9.3-4.2,19.2-7,29.1-9.8c-12.8,5.3-24.7,12.2-35.8,20.4
	c-24.7,18.4-44.8,41.3-62.2,66.4c-11.4,16.5-21.5,34.1-32.2,51.1C104.3,186.7,103.6,187.9,102.7,189.4z"/>
<path class="st1" d="M159,42.8c-9.6-3.4-17-10.1-22.1-19.1c-1.5-2.6-2.7-2.3-4.6-1.3c-5.3,2.7-10.6,5.5-16.1,8.4
	c-1.1-1-2.5-2.4-3.9-3.6c2.6-5.9,20.2-20.4,27.8-22.8c6.7,19.2,20.8,31.1,40.2,38.5c-28.3,13.2-45.7,35.9-60.1,61.5
	c-0.4-3.1,3.1-14.3,8-23.2c4-7.2,8.1-14.4,13.3-20.7C146.5,54.1,152.9,48.8,159,42.8z"/>
<path class="st2" d="M0,43.1c19.1-7.6,33.1-19.3,40-38.8c10.8,5.8,19.8,13.2,28,22.4c-1.7,1.6-3.2,3-4.3,4c-5.8-3-11.1-5.9-16.5-8.4
	c-1-0.5-3.3-0.2-3.6,0.4c-5.2,9.5-13,16-23.7,20.6c10.4,7.8,19,16.3,25.6,26.9C52.1,80.7,57,91.9,59.9,104C45.3,78.7,28,56.1,0,43.1
	z"/>
<path class="st2" d="M102.5,21.9c10.4,14.9,25.1,22.4,44,24.6c-21.6,17.9-31.6,41.6-38.7,67c-0.4-11.2,1.5-22,4.9-32.5
	c3.5-10.7,8.6-20.5,16.7-29.6c-11-1.7-19.7-6.2-26.8-14.1c-14.4,9.6-22.5,23-26.1,40.1C74,60.5,87.9,33.8,102.5,21.9z"/>
<path class="st0" d="M72.2,115C65,89,55,64.6,32.8,46.5c18.7-2.3,33.8-9.6,44.6-25.5c2.8,3.1,5.5,5.9,8,8.9c0.5,0.6,0.4,2.2,0,3
	c-1.3,2.3-2.8,4.4-4.4,6.8c-1.2-0.6-2.3-1.3-3.8-2.1c-7,7.7-15.6,12.5-26.5,13.8C66.6,70,72.1,91.6,72.2,115z"/>
<path class="st1" d="M111.3,62.4c0,3.2-3.9,7.8-6.6,7.7c-4.5-0.2-8.3-3.6-8.4-7.7c-0.1-4.2,3.4-7.8,8-8
	C107.6,54.2,111.3,58.3,111.3,62.4z"/>
<g>
	<path class="st2" d="M221.8,84.3H232v36.4h17.8v8.5h-28L221.8,84.3L221.8,84.3z"/>
	<path class="st2" d="M262.6,116.1c0.2,4.2,4.5,6.2,9.2,6.2c3.5,0,6.3-0.5,9-1.4l1.4,6.8c-3.3,1.4-7.4,2.1-11.8,2.1
		c-11,0-17.3-6.4-17.3-16.6c0-8.3,5.1-17.3,16.5-17.3c10.5,0,14.5,8.2,14.5,16.2c0,1.7-0.2,3.2-0.4,4L262.6,116.1L262.6,116.1z
		 M274.5,109.2c0-2.5-1.1-6.6-5.7-6.6c-4.2,0-5.9,4-6.3,6.6H274.5z"/>
	<path class="st2" d="M290,107c0-4.1-0.1-7.4-0.2-10.4h8.8l0.5,4.6h0.2c1.4-2.1,4.6-5.2,10-5.2c6.7,0,11.6,4.5,11.6,14v19.2h-10.1
		v-18.1c0-4.2-1.5-7.1-5.1-7.1c-2.8,0-4.5,2-5.2,3.8c-0.2,0.6-0.4,1.6-0.4,2.5v18.8H290L290,107L290,107z"/>
	<path class="st2" d="M360.5,82v37.5c0,3.7,0.1,7.5,0.2,9.6h-9l-0.4-4.7h-0.2c-2,3.6-5.9,5.4-10.1,5.4c-7.7,0-13.9-6.6-13.9-16.7
		c-0.1-11,6.8-17.3,14.6-17.3c4.1,0,7.2,1.5,8.5,3.7h0.1V82C350.4,82,360.5,82,360.5,82z M350.4,110.5c0-0.5,0-1.2-0.1-1.9
		c-0.6-2.7-2.8-4.9-5.9-4.9c-4.7,0-6.9,4.1-6.9,9.3c0,5.6,2.7,9,6.9,9c3,0,5.3-2,5.9-4.8c0.1-0.7,0.2-1.5,0.2-2.4v-4.3
		C350.5,110.5,350.4,110.5,350.4,110.5z"/>
	<path class="st1" d="M368.9,84.3h27.3v8.3h-17.2v10.3h16.1v8.3h-16.1v18.1h-10.1V84.3z"/>
	<path class="st1" d="M428.1,121.3c0,3.1,0.1,6.1,0.5,7.8h-9.2l-0.6-3.2h-0.2c-2.1,2.6-5.4,4-9.3,4c-6.6,0-10.5-4.8-10.5-10
		c0-8.4,7.5-12.5,19.1-12.5V107c0-1.9-1-4.2-5.9-4.2c-3.3,0-6.8,1.1-9,2.5l-1.9-6.6c2.2-1.2,6.7-3,12.6-3c10.9,0,14.2,6.4,14.2,14.1
		v11.5L428.1,121.3L428.1,121.3z M418.3,113.8c-5.3,0-9.4,1.2-9.4,5.1c0,2.6,1.7,3.8,4,3.8c2.5,0,4.6-1.6,5.2-3.7
		c0.1-0.5,0.2-1.1,0.2-1.7L418.3,113.8L418.3,113.8z"/>
	<path class="st1" d="M460.6,128.3c-1.9,0.9-5.2,1.5-9,1.5c-10.5,0-17.2-6.4-17.2-16.6c0-9.5,6.6-17.3,18.7-17.3
		c2.7,0,5.6,0.5,7.7,1.2l-1.6,7.5c-1.2-0.5-3-1-5.7-1c-5.3,0-8.8,3.8-8.7,9.2c0,5.9,4,9.2,8.9,9.2c2.4,0,4.2-0.4,5.8-1.1
		L460.6,128.3z"/>
	<path class="st1" d="M476.5,87.6c0,2.8-2.1,5.1-5.4,5.1c-3.2,0-5.2-2.2-5.2-5.1c0-2.8,2.1-5.1,5.4-5.1
		C474.6,82.5,476.5,84.7,476.5,87.6z M466.2,129.1V96.6h10.1v32.5H466.2z"/>
	<path class="st1" d="M484.3,82h10.1v47.3h-10.1V82z"/>
	<path class="st1" d="M510.4,116.1c0.2,4.2,4.5,6.2,9.2,6.2c3.5,0,6.3-0.5,9-1.4l1.4,6.8c-3.3,1.4-7.4,2.1-11.8,2.1
		c-11,0-17.3-6.4-17.3-16.6c0-8.3,5.1-17.3,16.5-17.3c10.5,0,14.5,8.2,14.5,16.2c0,1.7-0.2,3.2-0.4,4L510.4,116.1L510.4,116.1z
		 M522.3,109.2c0-2.5-1.1-6.6-5.7-6.6c-4.2,0-5.9,4-6.3,6.6H522.3z"/>
</g>
<g>
	<path class="st0" d="M222.7,145.6h3.2v25.5h7.9v2.7h-11.1V145.6z"/>
	<path class="st0" d="M248.7,163.6c0,7.8-3.6,10.5-6.8,10.5c-3.6,0-6.6-3.3-6.6-10.4c0-7.4,3.3-10.5,6.8-10.5
		C245.8,153.3,248.7,156.6,248.7,163.6z M238.5,163.6c0,3.3,0.6,7.9,3.5,7.9c2.7,0,3.3-4.7,3.3-7.9c0-3.1-0.6-7.9-3.5-7.9
		C239.1,155.9,238.5,160.6,238.5,163.6z"/>
	<path class="st0" d="M263,169.2c0,1.6,0,3.3,0.2,4.6h-2.8l-0.2-2.1h-0.1c-0.9,1.6-2.4,2.5-4.1,2.5c-2.7,0-4.8-2.2-4.8-5.8
		c0-5.1,4.1-7.3,8.7-7.4v-0.5c0-2.7-0.7-4.6-3.2-4.6c-1.2,0-2.4,0.4-3.3,1l-0.7-2.2c0.9-0.6,2.7-1.4,4.7-1.4c4.1,0,5.8,2.6,5.8,7.2
		V169.2L263,169.2z M259.8,163.3c-1.7,0-5.6,0.4-5.6,4.7c0,2.7,1.4,3.6,2.5,3.6c1.5,0,2.6-1,3-3.1c0.1-0.4,0.1-0.7,0.1-1.1V163.3z"
		/>
	<path class="st0" d="M267.6,158.8c0-2.4-0.1-3.6-0.1-5.2h2.8l0.1,2.5h0.1c0.9-1.6,2.5-2.7,4.7-2.7c2.8,0,4.9,2.1,4.9,6.9v13.6H277
		v-13c0-2.5-0.5-4.8-2.8-4.8c-1.4,0-2.6,1.1-3,3.2c-0.1,0.5-0.1,1.1-0.1,1.9v12.7h-3.2v-15.1L267.6,158.8L267.6,158.8z"/>
	<path class="st0" d="M306.2,159.6c0,10.6-3.6,14.7-8.2,14.7c-4.7,0-7.8-4.9-7.8-14.5c0-9.4,3.3-14.5,8.3-14.5
		C303.4,145.2,306.2,150.5,306.2,159.6z M293.6,159.7c0,5.8,1.1,11.6,4.7,11.6s4.6-6.2,4.6-11.6c0-5.3-1-11.5-4.6-11.5
		C294.7,148.1,293.6,154,293.6,159.7z"/>
	<path class="st0" d="M310,158.8c0-1.7-0.1-3.7-0.1-5.2h2.8l0.1,3.2h0.1c0.6-2,2.4-3.5,4.3-3.5c0.2,0,0.5,0,0.6,0v3.2
		c-0.2,0-0.4,0-0.6,0c-2.1,0-3.6,1.9-3.8,4.2c-0.1,0.5-0.1,1.1-0.1,1.9v11.3h-3.2L310,158.8L310,158.8z"/>
	<path class="st0" d="M323.9,148.3c0,1.2-0.7,2.1-2,2.1c-1,0-1.9-0.9-1.9-2.1c0-1.2,0.9-2.1,1.9-2.1
		C323.1,146.2,323.9,147.1,323.9,148.3z M320.4,173.8v-20.3h3.2v20.3H320.4z"/>
	<path class="st0" d="M340.3,171.2c0,5.3-0.6,7.3-2,8.8c-1.2,1.4-3.1,2.1-5.4,2.1c-1.7,0-3.3-0.4-4.5-1l0.7-2.5
		c0.7,0.4,2.1,0.9,3.7,0.9c2.6,0,4.2-1.6,4.2-6.2v-2.1H337c-0.6,1.6-2.2,2.5-3.8,2.5c-3.6,0-5.9-4.1-5.9-10c0-7.4,3.3-10.5,6.4-10.5
		c2.1,0,3.1,1.5,3.7,2.6h0.1l0.1-2.2h2.8c0,1.4-0.1,3.2-0.1,6.3V171.2z M337.2,160.6c0-0.5,0-1-0.1-1.5c-0.4-1.4-1.1-3.1-3-3.1
		c-2.4,0-3.6,3.1-3.6,7.7c0,5.2,1.6,7.5,3.6,7.5c1,0,2.2-0.5,2.8-2.8c0.1-0.6,0.2-1.2,0.2-1.9V160.6z"/>
	<path class="st0" d="M348.4,148.3c0,1.2-0.7,2.1-2,2.1c-1,0-1.9-0.9-1.9-2.1c0-1.2,0.9-2.1,1.9-2.1
		C347.6,146.2,348.4,147.1,348.4,148.3z M344.9,173.8v-20.3h3.2v20.3H344.9z"/>
	<path class="st0" d="M352.6,158.8c0-2.4-0.1-3.6-0.1-5.2h2.8l0.1,2.5h0.1c0.9-1.6,2.5-2.7,4.7-2.7c2.8,0,4.9,2.1,4.9,6.9v13.6H362
		v-13c0-2.5-0.5-4.8-2.8-4.8c-1.4,0-2.6,1.1-3,3.2c-0.1,0.5-0.1,1.1-0.1,1.9v12.7h-3.2v-15.1L352.6,158.8L352.6,158.8z"/>
	<path class="st0" d="M380.3,169.2c0,1.6,0,3.3,0.2,4.6h-2.8l-0.2-2.1h-0.1c-0.9,1.6-2.4,2.5-4.1,2.5c-2.7,0-4.8-2.2-4.8-5.8
		c0-5.1,4.1-7.3,8.7-7.4v-0.5c0-2.7-0.7-4.6-3.2-4.6c-1.2,0-2.4,0.4-3.3,1l-0.7-2.2c0.9-0.6,2.7-1.4,4.7-1.4c4.1,0,5.8,2.6,5.8,7.2
		V169.2z M377.1,163.3c-1.7,0-5.6,0.4-5.6,4.7c0,2.7,1.4,3.6,2.5,3.6c1.5,0,2.6-1,3-3.1c0.1-0.4,0.1-0.7,0.1-1.1V163.3z"/>
	<path class="st0" d="M388.3,148.8v4.7h3.8v2.5h-3.8v12.1c0,2.6,0.9,3.3,2.1,3.3c0.5,0,1,0,1.2-0.1l0.1,2.5
		c-0.6,0.2-1.4,0.4-2.4,0.4c-1.4,0-2.5-0.4-3.2-1.2c-0.9-0.9-1.2-2.4-1.2-5.1v-11.8h-2.5v-2.5h2.5v-3.5L388.3,148.8z"/>
	<path class="st0" d="M398.6,148.3c0,1.2-0.7,2.1-2,2.1c-1,0-1.9-0.9-1.9-2.1c0-1.2,0.9-2.1,1.9-2.1
		C397.9,146.2,398.6,147.1,398.6,148.3z M395.1,173.8v-20.3h3.2v20.3H395.1z"/>
	<path class="st0" d="M415.3,163.6c0,7.8-3.6,10.5-6.8,10.5c-3.6,0-6.6-3.3-6.6-10.4c0-7.4,3.3-10.5,6.8-10.5
		C412.3,153.3,415.3,156.6,415.3,163.6z M405.2,163.6c0,3.3,0.6,7.9,3.5,7.9c2.7,0,3.3-4.7,3.3-7.9c0-3.1-0.6-7.9-3.5-7.9
		C405.8,155.9,405.2,160.6,405.2,163.6z"/>
	<path class="st0" d="M418.9,158.8c0-2.4-0.1-3.6-0.1-5.2h2.8l0.1,2.5h0.1c0.9-1.6,2.5-2.7,4.7-2.7c2.8,0,4.9,2.1,4.9,6.9v13.6h-3.2
		v-13c0-2.5-0.5-4.8-2.8-4.8c-1.4,0-2.6,1.1-3,3.2c-0.1,0.5-0.1,1.1-0.1,1.9v12.7h-3.2v-15.1L418.9,158.8L418.9,158.8z"/>
	<path class="st0" d="M442,170.1c0.9,0.6,2.6,1.1,4.1,1.1c3,0,4.7-2,4.7-4.8c0-2.6-1.5-4.2-3.7-5.8c-2.2-1.6-5.3-4.2-5.3-7.8
		c0-4.3,3-7.4,7.4-7.4c1.7,0,3.2,0.5,4,1l-0.7,2.7c-0.7-0.5-1.9-1-3.3-1c-2.8,0-4.1,2.1-4.1,4.1c0,2.8,1.5,3.8,4.2,5.8
		c3.3,2.4,4.9,4.9,4.9,8.2c0,4.8-3.3,7.9-7.9,7.9c-2,0-4-0.6-4.7-1.2L442,170.1z"/>
	<path class="st0" d="M458.7,153.5l2.7,11.6c0.4,1.6,0.5,2.8,0.9,4.2h0.1c0.2-1.1,0.5-2.7,0.9-4.2l2.5-11.6h3.2l-3.3,13
		c-1.2,5.1-2.7,10-5.1,13.1c-1.5,1.9-3,2.7-3.6,3.1l-1.2-2.7c1-0.5,2-1.5,2.8-2.6c0.9-1.1,1.5-2.5,1.9-3.5c0.1-0.5,0.2-0.7,0.2-1
		s0-0.5-0.1-0.7l-5.1-18.7L458.7,153.5L458.7,153.5z"/>
	<path class="st0" d="M471.1,170.5c0.7,0.5,2,1,3.2,1c1.9,0,3-1.1,3-3c0-1.6-0.5-2.6-2.6-4c-2.6-1.7-4.1-3.5-4.1-5.7
		c0-3.3,2.5-5.6,5.6-5.6c1.6,0,2.7,0.5,3.6,1l-0.9,2.5c-0.7-0.5-1.6-0.9-2.7-0.9c-1.7,0-2.6,1.2-2.6,2.6c0,1.4,0.5,2.1,2.5,3.5
		c2.4,1.5,4.2,3.3,4.2,6.2c0,4.1-2.7,6.1-6.1,6.1c-1.5,0-3.1-0.5-4-1.1L471.1,170.5z"/>
	<path class="st0" d="M487.7,148.8v4.7h3.8v2.5h-3.8v12.1c0,2.6,0.9,3.3,2.1,3.3c0.5,0,1,0,1.2-0.1l0.1,2.5
		c-0.6,0.2-1.4,0.4-2.4,0.4c-1.2,0-2.5-0.4-3.2-1.2c-0.9-0.9-1.2-2.4-1.2-5.1v-11.8h-2.5v-2.5h2.5v-3.5L487.7,148.8z"/>
	<path class="st0" d="M496.3,164c0,6.2,2.5,7.5,4.8,7.5c1.5,0,2.6-0.4,3.3-0.7l0.5,2.4c-1.1,0.6-2.8,1-4.5,1c-4.8,0-7.4-4-7.4-10.1
		c0-6.6,2.8-10.6,6.9-10.6c4.1,0,5.8,4.3,5.8,8.9c0,0.7,0,1.4-0.1,1.9L496.3,164L496.3,164z M502.8,161.5c0-4.1-1.5-5.8-3-5.8
		c-2.1,0-3.2,3.1-3.3,5.8H502.8z"/>
	<path class="st0" d="M509.3,158.8c0-2.4-0.1-3.6-0.1-5.2h2.8l0.1,2.5h0.1c0.9-1.6,2.5-2.8,4.6-2.8c1.9,0,3.5,0.9,4.2,3.1h0.1
		c0.5-1,1.2-1.9,2-2.4c0.7-0.5,1.7-0.7,2.8-0.7c2.7,0,4.8,2,4.8,7.2v13.4h-3.2v-12.7c0-2.6-0.4-5.2-2.8-5.2c-1.4,0-2.5,1.1-3,3.1
		c-0.1,0.5-0.1,1.1-0.1,1.9v13h-3.2v-13.2c0-2.2-0.4-4.6-2.8-4.6c-1.4,0-2.6,1.1-3,3.3c-0.1,0.5-0.1,1.1-0.1,1.7v12.9h-3.2V158.8z"
		/>
</g>
</svg>
