<?xml version="1.0" encoding="utf-8"?>
<!-- Generator: Adobe Illustrator 27.0.0, SVG Export Plug-In . SVG Version: 6.00 Build 0)  -->
<svg version="1.1" id="Layer_1" xmlns="http://www.w3.org/2000/svg" xmlns:xlink="http://www.w3.org/1999/xlink" x="0px" y="0px"
	 viewBox="0 0 771 214" style="enable-background:new 0 0 771 214;" xml:space="preserve">
<style type="text/css">
	.st0{fill:#8BC53D;}
	.st1{fill:#4B91D5;}
	.st2{fill:#FFFFFF;}
	.st3{fill:#1F356D;}
	.st4{fill:#1C75BC;}
	.st5{fill:#1F366A;}
</style>
<g>
	<path class="st0" d="M173,51.8c-9.6-3.4-17-10.1-22.1-19.1c-1.5-2.6-2.7-2.3-4.6-1.3c-5.3,2.7-10.6,5.5-16.1,8.4
		c-1.1-1-2.5-2.4-3.9-3.6c2.6-5.9,20.2-20.4,27.8-22.8c6.7,19.2,20.8,31.1,40.2,38.5c-28.3,13.2-45.7,35.9-60.1,61.5
		c-0.4-3.1,3.1-14.3,8-23.2c4-7.2,8.1-14.4,13.3-20.7C160.5,63.1,166.9,57.8,173,51.8z"/>
</g>
<g>
	<path class="st1" d="M72.2,114c-12.7-22.1-29.7-46.5-59-60.1l-4.2-2l4.3-1.7c20.3-8.1,32.6-20,38.9-37.6l0.8-2.2l2.1,1.1
		c10.6,5.7,19.9,13.2,28.5,22.8l1.3,1.5l-1.4,1.3c-1.7,1.6-3.2,3-4.3,4l-1,0.9l-1.2-0.6c-1.5-0.8-3-1.6-4.5-2.4
		c-4.1-2.2-8-4.2-11.9-6c-0.1,0-0.2-0.1-0.5-0.1c-0.3,0-0.5,0-0.7,0.1C54.3,41.6,47.3,48,37.7,52.7c10.2,8,17.7,16.1,23.5,25.4
		c6.9,10.9,11.8,22.5,14.6,34.4l3.2,13.4L72.2,114z"/>
	<path class="st2" d="M54,13.3c10.8,5.8,19.8,13.2,28,22.4c-1.7,1.6-3.2,3-4.3,4c-5.8-3-11.1-5.9-16.5-8.4c-0.4-0.2-0.9-0.3-1.4-0.3
		c-1,0-2,0.3-2.2,0.7c-5.2,9.5-13,16-23.7,20.6c10.4,7.8,19,16.3,25.6,26.9C66.1,89.7,71,100.9,73.9,113C59.3,87.7,42,65.1,14,52.1
		C33.1,44.5,47.1,32.8,54,13.3 M51.8,7.6L50.2,12c-6,17-18,28.6-37.7,36.4l-8.6,3.4l8.4,3.9C41.1,69.1,57.9,93.2,70.4,115l13.8,23.9
		l-6.4-26.8c-2.9-12.1-7.9-23.9-14.9-35c-5.4-8.7-12.3-16.5-21.5-24c8.2-4.5,14.3-10.4,18.8-17.9c3.7,1.7,7.3,3.6,11.2,5.7
		c1.5,0.8,3,1.6,4.5,2.4l2.5,1.3l2.1-1.9c1-0.9,2.4-2.2,4.4-4l2.8-2.7L85,33c-8.8-9.9-18.3-17.5-29.1-23.3L51.8,7.6L51.8,7.6z"/>
</g>
<g>
	<path class="st1" d="M116.5,30.9c10.4,14.9,25.1,22.4,44,24.6c-21.6,17.9-31.6,41.6-38.7,67c-0.4-11.2,1.5-22,4.9-32.5
		c3.5-10.7,8.6-20.5,16.7-29.6c-11-1.7-19.7-6.2-26.8-14.1c-14.4,9.6-22.5,23-26.1,40.1C88,69.5,101.9,42.8,116.5,30.9z"/>
</g>
<g>
	<path class="st3" d="M86.2,124C79,98,69,73.6,46.8,55.5c18.7-2.3,33.8-9.6,44.6-25.5c2.8,3.1,5.5,5.9,8,8.9c0.5,0.6,0.4,2.2,0,3
		c-1.3,2.3-2.8,4.4-4.4,6.8c-1.2-0.6-2.3-1.3-3.8-2.1c-7,7.7-15.6,12.5-26.5,13.8C80.6,79,86.1,100.6,86.2,124z"/>
</g>
<g>
	<path class="st0" d="M125.3,71.4c0,3.2-3.9,7.8-6.6,7.7c-4.5-0.2-8.3-3.6-8.4-7.7c-0.1-4.2,3.4-7.8,8-8
		C121.6,63.2,125.3,67.3,125.3,71.4z"/>
</g>
<g>
	<polygon class="st4" points="217.2,93.7 234.8,93.7 234.8,156.8 265.7,156.8 265.7,171.6 217.2,171.6 217.2,93.7 	"/>
</g>
<g>
	<g>
		<path class="st4" d="M288,148.8c0.4,7.3,7.7,10.7,15.9,10.7c6,0,10.9-0.9,15.7-2.4l2.4,11.8c-5.8,2.4-12.9,3.6-20.4,3.6
			c-19.1,0-30-11.2-30-28.8c0-14.4,8.8-30,28.5-30c18.2,0,25.1,14.2,25.1,28.1c0,3-0.4,5.6-0.6,6.9L288,148.8L288,148.8z
			 M308.6,136.8c0-4.3-1.9-11.4-9.9-11.4c-7.3,0-10.3,6.9-10.9,11.4H308.6z"/>
	</g>
</g>
<g>
	<path class="st4" d="M335.4,132.9c0-7.1-0.2-12.9-0.4-18h15.2l0.9,7.9h0.4c2.4-3.6,7.9-9,17.4-9c11.6,0,20.2,7.7,20.2,24.3v33.3
		h-17.6V140c0-7.3-2.6-12.2-8.8-12.2c-4.9,0-7.7,3.4-9,6.7c-0.4,1.1-0.6,2.8-0.6,4.3v32.6h-17.6L335.4,132.9L335.4,132.9z"/>
</g>
<g>
	<g>
		<path class="st4" d="M457.8,89.6v65c0,6.4,0.2,13.1,0.4,16.7h-15.7l-0.6-8.2h-0.4c-3.4,6.2-10.3,9.4-17.6,9.4
			c-13.3,0-24-11.4-24-29c-0.2-19.1,11.8-30,25.3-30c7.1,0,12.4,2.6,14.8,6.4h0.2V89.6C440.2,89.6,457.8,89.6,457.8,89.6z
			 M440.2,138.9c0-0.9,0-2.1-0.2-3.2c-1.1-4.7-4.9-8.6-10.3-8.6c-8.2,0-12,7.1-12,16.1c0,9.7,4.7,15.7,12,15.7
			c5.2,0,9.2-3.4,10.3-8.4c0.2-1.3,0.4-2.6,0.4-4.1v-7.5H440.2z"/>
	</g>
</g>
<g>
	<polygon class="st0" points="472.4,93.7 519.8,93.7 519.8,108 490,108 490,125.8 517.9,125.8 517.9,140.2 490,140.2 490,171.5 
		472.4,171.5 	"/>
</g>
<g>
	<g>
		<path class="st0" d="M574.9,157.8c0,5.4,0.2,10.5,0.9,13.5h-15.9l-1.1-5.6h-0.4c-3.6,4.5-9.4,6.9-16.1,6.9
			c-11.4,0-18.2-8.4-18.2-17.4c0-14.6,13.1-21.7,33-21.7v-0.6c0-3.2-1.7-7.3-10.3-7.3c-5.8,0-11.8,1.9-15.7,4.3l-3.2-11.4
			c3.9-2.1,11.6-5.2,21.9-5.2c18.9,0,24.7,11.2,24.7,24.5v20H574.9L574.9,157.8z M558,144.7c-9.2,0-16.3,2.1-16.3,8.8
			c0,4.5,3,6.7,6.9,6.7c4.3,0,7.9-2.8,9-6.4c0.2-0.9,0.4-1.9,0.4-3L558,144.7L558,144.7z"/>
	</g>
</g>
<g>
	<path class="st0" d="M631.4,169.8c-3.2,1.5-9,2.6-15.7,2.6c-18.2,0-29.8-11.2-29.8-28.8c0-16.5,11.4-30,32.4-30
		c4.7,0,9.7,0.9,13.3,2.1l-2.8,13.1c-2.1-0.9-5.2-1.7-9.9-1.7c-9.2,0-15.2,6.7-15,15.9c0,10.3,6.9,15.9,15.5,15.9
		c4.1,0,7.3-0.6,10.1-1.9L631.4,169.8z"/>
</g>
<g>
	<g>
		<path class="st0" d="M659.1,99.2c0,4.9-3.6,8.8-9.4,8.8c-5.6,0-9-3.9-9-8.8s3.6-8.8,9.4-8.8C655.6,90.4,659.1,94.3,659.1,99.2z
			 M641,171.3v-56.4h17.6v56.4H641z"/>
	</g>
</g>
<g>
	<rect x="672.6" y="89.6" class="st0" width="17.6" height="82"/>
</g>
<g>
	<g>
		<path class="st0" d="M717.9,148.8c0.4,7.3,7.7,10.7,15.9,10.7c6,0,10.9-0.9,15.7-2.4l2.4,11.8c-5.8,2.4-12.9,3.6-20.4,3.6
			c-19.1,0-30-11.2-30-28.8c0-14.4,8.8-30,28.5-30c18.2,0,25.1,14.2,25.1,28.1c0,3-0.4,5.6-0.6,6.9L717.9,148.8L717.9,148.8z
			 M738.5,136.8c0-4.3-1.9-11.4-9.9-11.4c-7.3,0-10.3,6.9-10.9,11.4H738.5z"/>
	</g>
</g>
<g>
	<path class="st5" d="M116.7,198.4c-23-35.6-49.7-66.5-91.4-79.5c7.1-1.8,30.8,3.4,47.2,11.8c15,7.6,28.6,17.3,40.8,29.4
		c5.7-7.2,11.1-14.4,16.8-21.2c25.1-30.2,53.8-56.2,90.1-72.5c9.3-4.2,19.2-7,29.1-9.8c-12.8,5.3-24.7,12.2-35.8,20.4
		c-24.7,18.4-44.8,41.3-62.2,66.4c-11.4,16.5-21.5,34.1-32.2,51.1C118.3,195.7,117.6,196.9,116.7,198.4z"/>
</g>
</svg>
