<?xml version="1.0" encoding="utf-8"?>
<!-- Generator: Adobe Illustrator 27.0.0, SVG Export Plug-In . SVG Version: 6.00 Build 0)  -->
<svg version="1.1" id="Layer_1" xmlns="http://www.w3.org/2000/svg" xmlns:xlink="http://www.w3.org/1999/xlink" x="0px" y="0px"
	 viewBox="0 0 22 16" style="enable-background:new 0 0 22 16;" xml:space="preserve">
<style type="text/css">
	.st0{fill:#600D60;}
	.st1{font-family:'Calibri';}
	.st2{font-size:11.0004px;}
</style>
<text transform="matrix(1 0 0 1 4.7688 11.1683)" class="st0 st1 st2">RC</text>
<g>
	<path class="st0" d="M19,1c1.1,0,2,0.9,2,2v10c0,1.1-0.9,2-2,2H3.1c-1.1,0-2-0.9-2-2V3c0-1.1,0.9-2,2-2H19 M19,0H3.1
		c-1.6,0-3,1.4-3,3v10c0,1.6,1.4,3,3,3H19c1.6,0,3-1.4,3-3V3C22,1.4,20.6,0,19,0L19,0z"/>
</g>
</svg>
