<?xml version="1.0" encoding="utf-8"?>
<!-- Generator: Adobe Illustrator 27.0.0, SVG Export Plug-In . SVG Version: 6.00 Build 0)  -->
<svg version="1.1" id="Layer_1" xmlns="http://www.w3.org/2000/svg" xmlns:xlink="http://www.w3.org/1999/xlink" x="0px" y="0px"
	 viewBox="0 0 16 16" style="enable-background:new 0 0 16 16;" xml:space="preserve">
<style type="text/css">
	.st0{fill:none;stroke:#000000;stroke-miterlimit:10;}
</style>
<g>
	<path d="M5.9,4.7c0-2.3,1.9-4.2,4.2-4.2c2.3,0,4.2,1.9,4.2,4.2c0,2.3-1.9,4.1-4.2,4.1C7.8,8.9,5.9,7,5.9,4.7z M6.6,4.8
		c0.2,0.2,0.9,1,0.9,1l2.1-2.2c0,0,0,2.3,0,4.6c0.4,0,0.7,0,1.2,0c0-2.2,0-4.6,0-4.6l2.1,2.1c0,0,0.6-0.7,0.8-0.8
		c-1.2-1.2-2.4-2.4-3.5-3.5C9,2.4,7.8,3.6,6.6,4.8z"/>
	<path d="M5.1,2.3c0,0.5-0.2,0.6-0.7,0.6c-1.2,0-0.4,0-1.6,0c-0.5,0-0.6,0.1-0.6,0.5c0,3.6,0,7.2,0,10.7c0,0.5,0.1,0.5,0.5,0.5
		c2.8,0,5.6,0,8.4,0c0.5,0,0.5-0.1,0.5-0.5c0-2,0-1.9,0-3.9c0-0.5,0.1-0.7,0.6-0.7c0,0.1,0,0.2,0,0.4c0,2.1,0,2.2,0,4.2
		c0,0.8-0.3,1.1-1.1,1.1c-2.8,0-5.6,0-8.3,0c-0.8,0-1.1-0.3-1.1-1.1c0-3.6,0-7.2,0-10.7c0-0.8,0.3-1.1,1.1-1.1
		C4.2,2.3,3.7,2.3,5.1,2.3z"/>
	<line class="st0" x1="3.8" y1="13.2" x2="10.2" y2="13.2"/>
	<line class="st0" x1="3.8" y1="10.8" x2="10.2" y2="10.8"/>
	<line class="st0" x1="3.8" y1="8.5" x2="6.2" y2="8.5"/>
	<line class="st0" x1="3.8" y1="6.1" x2="5.2" y2="6.1"/>
</g>
</svg>
