<?xml version="1.0" encoding="utf-8"?>
<!-- Generator: Adobe Illustrator 27.0.0, SVG Export Plug-In . SVG Version: 6.00 Build 0)  -->
<svg version="1.1" id="Layer_1" xmlns="http://www.w3.org/2000/svg" xmlns:xlink="http://www.w3.org/1999/xlink" x="0px" y="0px"
	 viewBox="0 0 32 32" style="enable-background:new 0 0 32 32;" xml:space="preserve">
<style type="text/css">
	.st0{fill:#BCBEC0;}
	.st1{fill:#FFFFFF;}
</style>
<path d="M16.3,1c0.6,0.1,1.1,0.1,1.7,0.3c5.9,1.4,9.9,5,11.5,10.9c1.4,5.1,0.2,9.7-3.3,13.8c-0.3,0.3-0.5,0.3-0.7,0.1
	c-0.2-0.2-0.2-0.4,0.1-0.7c0.6-0.8,1.2-1.6,1.7-2.4c1.6-2.7,2.1-5.6,1.8-8.7c-0.4-3-1.6-5.6-3.6-7.9c-2-2.2-4.5-3.6-7.4-4.2
	c-0.5-0.1-1-0.2-1.6-0.3c0,2.3,0,4.6,0,6.9c0.1,0,0.2,0,0.3,0c1.4,0,2.9,0,4.3,0c0.7,0,0.7,0.1,0.7,0.8c0,0.4,0,0.9,0,1.3
	c0,0.5-0.1,0.6-0.6,0.6c-0.1,0-0.2,0-0.3,0c0,0.4,0,0.8,0,1.2c0,1.1-0.3,2.2-1.1,3.1c-0.4,0.4-0.9,0.8-1.3,1.2
	c-0.1,0.1-0.2,0.1-0.3,0.2c2.2,1.2,2.8,3.2,2.6,5.6c0.2,0,0.3,0,0.4,0c0.3,0,0.5,0.2,0.5,0.5c0,0.5,0,1.1,0,1.6
	c0,0.4-0.2,0.5-0.5,0.5c-0.9,0-1.8,0-2.7,0c-2.5,0-5.1,0-7.6,0c-0.5,0-0.7-0.1-0.7-0.7c0-0.5,0-0.9,0-1.4c0-0.5,0.1-0.6,0.6-0.6
	c0.1,0,0.2,0,0.2,0c0-0.3,0-0.5,0-0.7c-1.7,1.7-3.3,3.3-5,5c0.9,0.8,2,1.4,3.1,1.9c2.2,1,4.6,1.4,7,1.2c2.2-0.2,4.2-0.8,6-2
	c0.6-0.4,1.2-0.9,1.8-1.3c0.3-0.2,0.7-0.1,0.7,0.2c0,0.2-0.1,0.4-0.2,0.5c-0.7,0.5-1.3,1-2.1,1.5c-2.4,1.4-5.1,2.1-7.9,2
	c-3.6-0.1-6.7-1.3-9.4-3.6c-0.3-0.2-0.3-0.5,0-0.8c0.3-0.3,0.6-0.6,0.9-0.9c-0.1-0.1-0.1-0.2-0.2-0.2c-2.1-2.1-3.4-4.5-3.8-7.4
	c-0.5-3.3,0.2-6.4,2-9.2C5.7,6.3,8,4.5,10.8,3.6c0.1,0,0.2-0.1,0.3-0.1c0.2,0.1,0.3,0.2,0.4,0.3c0.1,0.2,0,0.4-0.2,0.5
	c-0.2,0.1-0.5,0.2-0.7,0.3C8,5.6,6,7.3,4.5,9.7c-1.3,2.1-1.8,4.4-1.7,6.8c0.2,3.3,1.5,6.1,3.8,8.4c0,0,0.1,0,0.2,0.1
	c0.1-0.1,0.2-0.2,0.2-0.3c1.3-1.3,2.7-2.7,4-4c0.1-0.1,0.2-0.2,0.2-0.4c0.4-1.4,1.1-2.4,2.4-3.1c0,0,0.1-0.1,0.1-0.1
	c-2.2-1.2-2.8-3.2-2.6-5.6c-0.2,0-0.3,0-0.5,0c-0.3,0-0.4-0.2-0.4-0.4c0-0.6,0-1.2,0-1.8c0-0.3,0.2-0.5,0.6-0.5c1.4,0,2.9,0,4.3,0
	c0.1,0,0.2,0,0.4,0c0-1.7,0-3.3,0-5.1c-0.7,0-1.4,0.1-2,0.1c-0.2,0-0.4,0.1-0.6,0.1c-0.3,0-0.5-0.1-0.6-0.4c0-0.3,0.1-0.4,0.4-0.5
	c0.9-0.1,1.8-0.2,2.7-0.3c0-0.4,0-0.8,0-1.2c0-0.3,0.1-0.5,0.3-0.6C16,1,16.2,1,16.3,1z M20.1,11.5c-2.7,0-5.3,0-8,0
	c0,0.5,0,1,0,1.5c0.1,1.2,0.6,2.2,1.6,3c0.5,0.4,1,0.6,1.5,0.7c0.2,0.1,0.4,0.2,0.4,0.4c0,0.3-0.2,0.4-0.4,0.5
	c-0.1,0-0.2,0.1-0.4,0.1c-2.2,0.8-3,2.8-2.7,5c0.1,0,0.3,0,0.4,0c0.2-1.5,0.3-2,0.9-2.6c0.6-0.7,1.4-1.2,2.4-1.2
	c0.9-0.1,1.7,0.1,2.4,0.7c1.1,0.8,1.5,1.9,1.5,3.2c0.2,0,0.3,0,0.4,0c0-0.4,0-0.8,0-1.1c0-1.9-1.2-3.5-3-4c-0.2-0.1-0.5-0.2-0.5-0.4
	c0-0.3,0.2-0.4,0.5-0.5c0,0,0.1,0,0.1,0c1.1-0.4,1.9-1.1,2.5-2.1C20.1,13.5,20.1,12.5,20.1,11.5z M18.7,22.6c0-1.2-0.4-2.1-1.3-2.6
	c-1-0.6-2-0.5-2.9,0.2c-0.8,0.6-1.2,1.4-1.1,2.5C15.2,22.6,16.9,22.6,18.7,22.6z M11.2,24.4c3.3,0,6.5,0,9.8,0c0-0.3,0-0.6,0-0.9
	c-3.3,0-6.5,0-9.8,0C11.2,23.9,11.2,24.1,11.2,24.4z M11.2,10.5c3.3,0,6.5,0,9.8,0c0-0.3,0-0.6,0-0.9c-3.3,0-6.5,0-9.8,0
	C11.2,10,11.2,10.2,11.2,10.5z"/>
<path class="st0" d="M18.7,22.6c-1.8,0-3.5,0-5.3,0c-0.1-1,0.3-1.9,1.1-2.5c0.9-0.7,1.9-0.7,2.9-0.2C18.4,20.6,18.8,21.5,18.7,22.6z
	"/>
<path class="st1" d="M11.2,24.4c0-0.3,0-0.6,0-0.9c3.3,0,6.5,0,9.8,0c0,0.3,0,0.6,0,0.9C17.7,24.4,14.5,24.4,11.2,24.4z"/>
<path class="st1" d="M11.2,10.5c0-0.3,0-0.6,0-0.9c3.3,0,6.5,0,9.8,0c0,0.3,0,0.6,0,0.9C17.7,10.5,14.5,10.5,11.2,10.5z"/>
<path d="M20,11.5c-0.1,0-0.3,0-0.4,0c-0.2,1.5-0.3,2-0.9,2.6c-0.6,0.7-1.4,1.2-2.4,1.2c-0.9,0.1-1.7-0.1-2.4-0.7
	c-1.1-0.8-1.5-1.9-1.5-3.2c-0.2,0-0.3,0-0.4,0"/>
<path class="st0" d="M13.4,11.5c1.8,0,3.5,0,5.3,0c0.1,1-0.3,1.9-1.1,2.5c-0.9,0.7-1.9,0.7-2.9,0.2C13.8,13.5,13.4,12.6,13.4,11.5z"
	/>
</svg>
