<?xml version="1.0" encoding="utf-8"?>
<!-- Generator: Adobe Illustrator 27.0.0, SVG Export Plug-In . SVG Version: 6.00 Build 0)  -->
<svg version="1.1" id="Layer_1" xmlns="http://www.w3.org/2000/svg" xmlns:xlink="http://www.w3.org/1999/xlink" x="0px" y="0px"
	 viewBox="0 0 32 16" style="enable-background:new 0 0 32 16;" xml:space="preserve">
<style type="text/css">
	.st0{fill:#9A2ADB;}
	.st1{font-family:'Calibri';}
	.st2{font-size:11px;}
</style>
<g>
	<path class="st0" d="M29,1c1.1,0,2,0.9,2,2v10c0,1.1-0.9,2-2,2H3c-1.1,0-2-0.9-2-2V3c0-1.1,0.9-2,2-2H29 M29,0H3C1.4,0,0,1.4,0,3
		v10c0,1.6,1.4,3,3,3h26c1.6,0,3-1.4,3-3V3C32,1.4,30.6,0,29,0L29,0z"/>
</g>
<text transform="matrix(1 0 0 1 5.4365 11.4762)" class="st0 st1 st2">SIDU</text>
</svg>
