<?xml version="1.0" encoding="utf-8"?>
<!-- Generator: Adobe Illustrator 27.0.0, SVG Export Plug-In . SVG Version: 6.00 Build 0)  -->
<svg version="1.1" id="Layer_1" xmlns="http://www.w3.org/2000/svg" xmlns:xlink="http://www.w3.org/1999/xlink" x="0px" y="0px"
	 viewBox="0 0 26.1 32" style="enable-background:new 0 0 26.1 32;" xml:space="preserve">
<style type="text/css">
	.st0{fill:#2BB673;}
</style>
<g>
	<rect x="5.2" y="13" class="st0" width="3.4" height="13"/>
	<path d="M22,30.3c-5.9,0-11.7,0-17.6,0c-2-0.5-2.4-1-2.5-2.5c0-6.4,0-12.7,0-19.1c0-1.1,0.3-2,1.1-2.8c1-1,2-2,3-3
		c0.7-0.7,1.5-1.1,2.5-1c4.1,0,8.2,0.1,12.4,0c2.1,0,2.9,0.3,3.2,2.5c0,3.2,0,22.2,0,23.9C23.9,29.3,23.2,30,22,30.3z M8.2,2.9
		C8.2,2.8,8.1,2.7,8,2.7C7.6,3,7.1,3.2,6.8,3.5C5.8,4.5,4.9,5.4,4,6.3c-0.7,0.7-1,1.5-1,2.5c0,6.3,0,12.6,0,18.8
		c0,1.1,0.4,1.5,1.5,1.5c5.7,0,11.4,0,17.1,0c1.1,0,1.5-0.4,1.5-1.5c0-7.8,0-15.7,0-23.5c0-1.1-0.4-1.5-1.5-1.5c-3.9,0-7.7,0-11.6,0
		c-0.2,0-0.5,0-0.7,0c0,1.5,0,2.9,0,4.3c0,1.2-0.8,2-2,2C6.4,9,5.6,9,4.8,9C4.4,9,4,8.9,4,8.5C4,8,4.4,8,4.8,8c0.8,0,1.6,0,2.4,0
		c0.6,0,1-0.3,1-0.9C8.2,5.7,8.2,4.3,8.2,2.9z"/>
	<path d="M13,26.7c-2.4,0-4.9,0-7.3,0c-0.8,0-0.9-0.1-0.9-0.9c0-4.1,0-8.3,0-12.4c0-0.6,0.2-0.9,0.9-0.9c4.9,0,9.7,0,14.6,0
		c0.7,0,0.9,0.1,0.9,0.9c0,4.1,0,8.2,0,12.3c0,0.8-0.1,0.9-0.9,0.9C17.8,26.7,15.4,26.7,13,26.7z M20.1,19c0-0.5,0-1,0-1.4
		c0.1-0.6-0.1-0.8-0.7-0.8c-3.2,0-6.4,0-9.7,0c-0.2,0-0.4,0-0.6,0c0,0.7,0,1.4,0,2.1C12.8,19,16.4,19,20.1,19z M9.1,25.6
		c0.3,0,0.5,0,0.8,0c2.9,0,5.9,0,8.8,0c1.4,0,1.4,0,1.5-1.5c0-0.6-0.1-0.8-0.8-0.8c-3.2,0-6.4,0-9.6,0c-0.2,0-0.4,0-0.7,0
		C9.1,24.2,9.1,24.8,9.1,25.6z M9.1,15.8c3.7,0,7.3,0,11,0c0-0.5,0-1,0-1.5c0.1-0.6-0.2-0.7-0.7-0.7c-3.2,0-6.4,0-9.6,0
		c-0.2,0-0.4,0-0.6,0C9.1,14.3,9.1,15,9.1,15.8z M9.1,22.3c3.7,0,7.3,0,11,0c0-0.7,0-1.4,0-2.1c-3.7,0-7.3,0-11,0
		C9.1,20.9,9.1,21.6,9.1,22.3z M6,21.2c0,1,0,1,0.8,1c1.2,0,1.2,0,1.2-0.9c0-1.2,0-1.2-0.8-1.2C6,20.2,6,20.2,6,21.2z M8,14.7
		c0-1,0-1-0.9-1c-1.2,0-1-0.1-1.1,1.4c0,1,0.7,0.6,1.1,0.7C8,15.8,8,15.7,8,14.7z M5.9,17.8C6,19,6,19,7.3,19C8,19,8,19,8,17.5
		C7.9,16.4,7,17.1,6.6,17C5.8,16.8,5.9,17.5,5.9,17.8z M6,24.4c0,1.1,0,1.1,1.1,1.1c0.9,0,0.9,0,0.9-0.9c0-1.1,0-1.1-1.1-1.1
		C6,23.5,5.8,23.3,6,24.4z"/>
	<path d="M16.1,9c-1.4,0-2.7,0-4.1,0c-0.4,0-0.8,0-0.8-0.5C11.2,8,11.6,8,12,8c2.8,0,5.6,0,8.3,0c0.4,0,0.8,0,0.8,0.5
		c0,0.5-0.4,0.6-0.8,0.6C18.9,9,17.5,9,16.1,9z"/>
	<path d="M20.7,6.4h-4.5c-0.3,0-0.5-0.2-0.5-0.5V5.8c0-0.3,0.2-0.5,0.5-0.5h4.5c0.3,0,0.5,0.2,0.5,0.5v0.1
		C21.2,6.2,20.9,6.4,20.7,6.4z"/>
</g>
</svg>
