<?xml version="1.0" encoding="utf-8"?>
<!-- Generator: Adobe Illustrator 27.0.0, SVG Export Plug-In . SVG Version: 6.00 Build 0)  -->
<svg version="1.1" id="Layer_1" xmlns="http://www.w3.org/2000/svg" xmlns:xlink="http://www.w3.org/1999/xlink" x="0px" y="0px"
	 viewBox="0 0 32 32" style="enable-background:new 0 0 32 32;" xml:space="preserve">
<style type="text/css">
	.st0{fill:#68C300;}
</style>
<path class="st0" d="M6.3,15.3c3.2,3.2,6.1,6.1,9.2,9.3C20.5,19.5,30.8,9,30.8,9s0.3-0.4,0.3,0c0,4.7,0,11.2-0.1,15.9
	c-0.1,3.7-2.6,6.2-6.3,6.2c-5.8,0-11.5,0-17.3,0c-3.9,0-6.4-2.5-6.4-6.4c0-5.7,0-11.4,0-17c0-4,2.2-6.5,6.2-6.6
	c5.9-0.2,11.8-0.2,17.7,0c1.6,0.1,4-0.1,4.9,1.6c-5.1,5-9.9,9.7-14.9,14.6c-1-1.1-2.4-2.4-3.5-3.8c-1.3-1.6-2.3-1.3-3.5,0
	C7.4,14.1,6.8,14.7,6.3,15.3z"/>
</svg>
