<?xml version="1.0" encoding="utf-8"?>
<!-- Generator: Adobe Illustrator 27.0.0, SVG Export Plug-In . SVG Version: 6.00 Build 0)  -->
<svg version="1.1" id="Layer_1" xmlns="http://www.w3.org/2000/svg" xmlns:xlink="http://www.w3.org/1999/xlink" x="0px" y="0px"
	 viewBox="0 0 200 200" style="enable-background:new 0 0 200 200;" xml:space="preserve">
<style type="text/css">
	.st0{fill:#16753F;stroke:#187513;stroke-miterlimit:10;}
</style>
<path class="st0" d="M103.7,7.3c3.3,0.7,6.6,1.1,9.7,2.2c16.5,5.9,26.2,17.6,28.9,34.9c0.6,4.1,0.4,8.4,0.6,12.7c-5,0-9.6,0-14.5,0
	c0-3,0.2-5.9,0-8.7c-0.6-10.2-5.2-18.3-14.3-23.3c-15.8-8.7-38-1.4-42.1,19c-0.4,1.8-0.5,3.7-0.5,5.5c-0.1,9.2,0,18.4,0,27.7
	c0,0.4,0,0.7,0.1,1.3c0.7,0,1.3,0,2,0c22.9,0,45.7,0,68.6,0c14.6,0,26.1,9.6,28.7,23.9c0.3,1.6,0.4,3.3,0.4,4.9
	c0,18.8,0.1,37.6,0,56.4c0,14.2-9.6,25.8-23.6,28.4c-1.8,0.3-3.6,0.5-5.4,0.5c-28.3,0-56.6,0-84.8,0c-16.2,0-28.9-12.6-28.9-28.8
	c-0.1-18.9,0-37.7,0-56.6c0-15.6,11.9-28,27.5-28.8c0.3,0,0.6-0.1,1.1-0.1c0-0.7,0-1.3,0-1.9c0-9.8-0.2-19.7,0.2-29.5
	c0.6-17.3,13.5-33.3,30.2-38c2.9-0.8,5.8-1.3,8.7-1.9C98.8,7.3,101.2,7.3,103.7,7.3z M92.9,149.6C92.9,149.6,92.9,149.6,92.9,149.6
	c0,2.6,0,5.3,0,7.9c0.1,2.6,1.1,4.7,3.5,5.9c4,2.1,10.7,0.5,10.7-6.4c0-4.5,0.1-9,0-13.4c-0.1-1.9,0.1-3.5,2.1-4.4
	c0.5-0.2,0.9-0.8,1.4-1.2c4.2-4.5,4.9-11.3,1.7-16.6c-3.2-5.4-9.5-8.2-15.5-6.7c-6.1,1.6-9.9,5.5-10.8,11.7
	c-0.9,5.7,1.3,10.4,6.1,13.7c0.4,0.3,0.8,1,0.8,1.6C92.9,144.3,92.9,146.9,92.9,149.6z"/>
</svg>
