<?xml version="1.0" encoding="utf-8"?>
<!-- Generator: Adobe Illustrator 27.0.0, SVG Export Plug-In . SVG Version: 6.00 Build 0)  -->
<svg version="1.1" id="Layer_1" xmlns="http://www.w3.org/2000/svg" xmlns:xlink="http://www.w3.org/1999/xlink" x="0px" y="0px"
	 viewBox="0 0 32 32" style="enable-background:new 0 0 32 32;" xml:space="preserve">
<style type="text/css">
	.st0{fill:#FFFFFF;}
</style>
<path d="M1,23.9c0.2-0.5,0.6-0.7,1.2-0.7c0.9,0,1.7,0,2.6,0c0.1,0,0.2,0,0.3,0c0-0.2,0-0.3,0-0.4c0-5.4,0.1-12.8,0.1-18.1
	c0-1.8,1.1-3.1,2.9-3.4c0.3,0,0.5,0,0.8,0c6,0,11.9,0,17.9,0c0.7,0,1.4,0,2.1,0.4c1.3,0.7,2,1.7,2,3.1c0,1.4,0,2.8,0,4.2
	c0,0.6-0.4,1-1,1c-1.3,0-2.6,0-3.9,0c-0.1,0-0.2,0-0.3,0c0,0.2,0,0.3,0,0.4c0,4.7,0,11.4,0,16c0,1.9-0.9,3.4-2.6,4.2
	c-0.7,0.3-1.5,0.4-2.3,0.4c-5.1,0-10.2,0-15.2,0c-2,0-3.4-0.9-4.3-2.6c-0.2-0.4-0.3-0.9-0.4-1.3C1,25.9,1,24.9,1,23.9z M7,23.2
	c0.1,0,0.3,0,0.4,0c3.4,0,6.8,0,10.2,0c0.8,0,1.1,0.3,1.1,1.1c0,0.8,0,1.5,0,2.3c0.1,1.8,2.1,2.9,3.7,2c1-0.5,1.4-1.4,1.4-2.5
	c0-6.4,0-14.9,0-21.3c0-0.6,0.1-1.2,0.3-1.7c0,0,0-0.1,0-0.2c-0.1,0-0.2,0-0.3,0C19,3,13.9,3,8.9,3C8.7,3,8.5,3,8.3,3.1
	C7.5,3.3,7.1,3.9,7.1,4.7c0,5.4-0.1,12.8-0.1,18.1C7,23,7,23.1,7,23.2z M2.9,25.1c0,0.6,0,1.2,0,1.8c0,0.2,0.1,0.4,0.2,0.6
	C3.7,28.6,4.6,29,5.7,29c3.9,0,7.7,0,11.6,0c0.1,0,0.2,0,0.4,0c-0.9-1.2-0.9-2.5-0.8-3.9C12.2,25.1,7.6,25.1,2.9,25.1z M29.1,7.9
	c0-0.1,0-0.1,0-0.1c0-1,0-2.1,0-3.1c0-0.2-0.1-0.5-0.2-0.7c-0.3-0.7-1.1-1.1-1.9-0.9c-0.7,0.2-1.3,0.8-1.3,1.6c0,0.8,0,1.7,0,2.5
	c0,0.2,0,0.5,0,0.7C26.9,7.9,28,7.9,29.1,7.9z"/>
<path class="st0" d="M7,23.2c0-0.1,0-0.2,0-0.3c0-5.4,0.1-12.8,0.1-18.1c0-0.9,0.4-1.5,1.2-1.7C8.5,3,8.7,3,8.9,3C13.9,3,19,3,24,3
	c0.1,0,0.2,0,0.3,0c0,0.1,0,0.1,0,0.2c-0.3,0.5-0.3,1.1-0.3,1.7c0,6.4,0,14.9,0,21.3c0,1.1-0.4,1.9-1.4,2.5c-1.6,0.9-3.6-0.2-3.7-2
	c-0.1-0.8,0-1.5,0-2.3c0-0.8-0.3-1.1-1.1-1.1c-3.4,0-6.8,0-10.2,0C7.3,23.2,7.2,23.2,7,23.2z"/>
<path class="st0" d="M2.9,25.1c4.6,0,9.3,0,14,0c0,1.4-0.1,2.7,0.8,3.9c-0.2,0-0.3,0-0.4,0c-3.9,0-7.7,0-11.6,0
	c-1.2,0-2-0.4-2.6-1.5c-0.1-0.2-0.2-0.4-0.2-0.6C2.9,26.3,2.9,25.7,2.9,25.1z"/>
<path class="st0" d="M29.1,7.9c-1.1,0-2.2,0-3.3,0c0-0.2,0-0.5,0-0.7c0-0.8,0-1.7,0-2.5c0-0.8,0.6-1.4,1.3-1.6
	c0.8-0.2,1.5,0.2,1.9,0.9c0.1,0.2,0.2,0.4,0.2,0.7c0,1,0,2.1,0,3.1C29.1,7.8,29.1,7.9,29.1,7.9z"/>
<path d="M15.4,20.4c-1.7,0-3.4,0-5.1,0c-0.6,0-1-0.3-1-0.7c0-0.5,0.3-0.8,0.8-0.9c0,0,0.1,0,0.1,0c3.4,0,6.9,0,10.3,0
	c0.6,0,1,0.4,1,0.8c0,0.5-0.4,0.8-1,0.8c-1.1,0-2.3,0-3.4,0C16.6,20.4,16,20.4,15.4,20.4z"/>
<path d="M15.4,17.2c-1.7,0-3.4,0-5.1,0c-0.6,0-1-0.3-1-0.7c0-0.5,0.3-0.8,0.8-0.9c0,0,0.1,0,0.1,0c3.4,0,6.9,0,10.3,0
	c0.6,0,1,0.4,1,0.8c0,0.5-0.4,0.8-1,0.8c-1.1,0-2.3,0-3.4,0C16.6,17.2,16,17.2,15.4,17.2z"/>
<g>
	<circle cx="16.8" cy="6.1" r="2.2"/>
	<path d="M21.3,12.8c0-2.5-2-4.5-4.5-4.5s-4.5,2-4.5,4.5H21.3z"/>
</g>
</svg>
