<?xml version="1.0" encoding="utf-8"?>
<!-- Generator: Adobe Illustrator 27.0.0, SVG Export Plug-In . SVG Version: 6.00 Build 0)  -->
<svg version="1.1" id="Layer_1" xmlns="http://www.w3.org/2000/svg" xmlns:xlink="http://www.w3.org/1999/xlink" x="0px" y="0px"
	 viewBox="0 0 100 100" style="enable-background:new 0 0 100 100;" xml:space="preserve">
<style type="text/css">
	.st0{fill:#EF4136;}
</style>
<path d="M57.3,59.5c-0.3,0.2-0.7,0.4-1,0.7C47.4,69.1,38.5,78,29.6,87c-1.1,1.1-2.1,1.5-3.6,1.5c-6.5-0.1-12.9,0-19.4,0
	c-2,0-3.2-1.1-3.2-3.2c0-3.3,0-6.6,0-10c0-1.6,0.7-2.6,2.3-3.3c7.2-2.9,14.2-6.3,20.8-10.6c2.1-1.3,3.9-3,5.9-4.5
	c1.4-1.1,1.6-2.6,1.4-4.3c0-0.3-0.2-0.5-0.3-0.7c-2.6-3-4.3-6.4-5.5-10.2c-0.2-0.5-0.5-1.1-0.9-1.5c-2.3-2.3-2.8-5.8-1.1-8.7
	c0.3-0.5,0.4-1.1,0.5-1.6c0.1-3.7,0-7.5,0.2-11.2c0.5-6.9,5.2-11.9,12-13.1c4-0.7,8.1-0.7,12,0.6c5.7,1.8,8.9,5.8,9.6,11.6
	c0.4,3.8,0.2,7.7,0.3,11.6c0,0.8,0.2,1.7,0.6,2.3c1.5,2.8,1,6.3-1.2,8.5c-0.4,0.4-0.7,0.9-0.9,1.4c-1.1,3.7-2.8,7.1-5.3,10.1
	c-0.7,0.9-0.8,3,0,4C54.8,57.1,56,58.1,57.3,59.5z"/>
<path class="st0" d="M57.4,75.7c-0.4,2.9-0.9,5.9-1.2,8.8c-0.3,2.5-0.3,2.5-2.8,3c-1.9,0.4-3.8,0.8-5.6,1.1
	c-0.8,0.1-1.1,0.5-1.3,1.2c-0.5,2-1.1,4-1.6,6.1c-0.1,0.6-0.4,0.8-1,0.8c-2.6,0.1-5.2,0.2-7.7,0.3c-0.3,0-0.7-0.3-0.8-0.5
	c-0.7-1.4-1.3-2.9-1.8-4.3c-0.1-0.3,0.1-0.9,0.4-1.2c2.5-2.5,5-5,7.5-7.5c7.9-7.9,15.8-15.8,23.6-23.6c0.5-0.5,0.7-0.9,0.4-1.6
	c-2.9-9.7,3.6-19.4,13.7-20.4c9.5-0.9,17.7,6.7,17.5,16.2c-0.2,9-8,16.1-17,15.4c-1.6-0.1-3.3-0.6-4.9-1.1c-0.6-0.2-0.9-0.1-1.3,0.3
	c-2.1,2.2-4.3,4.3-6.5,6.4c-0.4,0.4-1.1,0.6-1.6,0.6C62.8,75.7,60.1,75.7,57.4,75.7z M85.2,45.2c-2.1,0-3.8,1.6-3.9,3.7
	c0,2.1,1.7,3.9,3.8,3.9c2.1,0,3.9-1.8,3.9-3.9C89,46.9,87.3,45.2,85.2,45.2z"/>
<path d="M61.5,88.4c0.3-2.1,0.5-4.2,0.9-6.2c0-0.3,0.5-0.7,0.8-0.7c1-0.1,2,0,2.9,0c1.8,0,3.3-0.6,4.5-1.8c1.5-1.5,3-3,4.5-4.5
	c0.2-0.2,0.6-0.4,1-0.4c2.5,0.2,4.9,0.4,7.5,0.6c0,0,0,0.4,0,0.7c0,3,0,6.1,0,9.1c0,2.2-1.1,3.2-3.2,3.3c-6,0-11.9,0-17.9,0
	C62.2,88.5,61.8,88.4,61.5,88.4z"/>
</svg>
