<?xml version="1.0" encoding="utf-8"?>
<!-- Generator: Adobe Illustrator 27.0.0, SVG Export Plug-In . SVG Version: 6.00 Build 0)  -->
<svg version="1.1" id="Layer_1" xmlns="http://www.w3.org/2000/svg" xmlns:xlink="http://www.w3.org/1999/xlink" x="0px" y="0px"
	 viewBox="0 0 691.2 698.4" style="enable-background:new 0 0 691.2 698.4;" xml:space="preserve">
<style type="text/css">
	.st0{fill:#27323A;}
</style>
<path class="st0" d="M662,575.2L559.9,473c-2.3-2.3-8.1,0.2-14.8,5l-8.3-8.3c42.7-55.4,40.2-133.8-6.7-186.9v-28.8l0.1,0.4
	c0-55.2-52.7-106.9-81-134.7l-6.5-6.4c-83.5-83.5-118.3-90.4-146.7-90.4l-9.7,0H63.2c-13.3,0-37,10.1-37,30.2v590.6
	c0,16.7,13.5,30.3,30.2,30.3h443.4c16.7,0,30.3-13.6,30.3-30.3V536.9c29.1,29.1,85.1,85.1,85.1,85.1
	C625.4,632.1,672.2,585.4,662,575.2L662,575.2z M498,457.8c-42.9,42.9-112.7,42.9-155.6,0c-42.9-42.9-42.9-112.8,0-155.7
	c20.8-20.8,48.4-32.1,77.8-32.1c29.5,0,57,11.4,77.8,32.1C540.8,345.1,540.8,414.9,498,457.8z M416.7,139.4l6.8,6.7
	c11.9,11.6,28.5,28.1,42.6,46.4c-27.8-10.4-58.7-12.4-86.2-13.5c-0.9-18.3-4.4-55.7-16.8-88.2C377.7,102.3,395.2,117.9,416.7,139.4z
	 M63.1,637.1V59.9c0.1-0.1,0.5-0.2,0.5-0.2h222.7l9.7,0.1c4.9,0,11.3,0.1,20.7,3.2l4.7,4.9c25.3,25,34.4,87.2,34.4,123
	c0,6.6,5.2,12,11.8,12.3l5.1,0.2c38.2,1.5,85.8,3.3,114.7,29.5l2.6,2.6c1.9,5.8,3.1,11.6,3.3,17.4c-56.3-32.4-129.1-25.1-177.2,23
	c-57.5,57.5-57.5,150.8,0,208.4c48.1,48.1,121,55.4,177.3,23v129.9L63.1,637.1L63.1,637.1z"/>
</svg>
